<?xml version="1.0" encoding="UTF-8"?>
<svg id="Layer_2" xmlns="http://www.w3.org/2000/svg" viewBox="0 0 854.98 232.69">
  <defs>
    <style>
      .cls-1, .cls-2 {
        fill: #89cff0;
      }

      .cls-3 {
        fill: #ebca96;
      }

      .cls-3, .cls-2 {
        stroke: #000;
        stroke-miterlimit: 10;
        stroke-width: 1.8px;
      }
    </style>
  </defs>
  <g id="_x2014_ÎÓÈ_x5F_1">
    <g>
      <path class="cls-3" d="M240.12,158.5c1.46-1.79,6.47-7.5,6.25-9.99.35-3.19-4.46-7.84-5.82-10.76-1.67-3.58-.91-7.8-2.46-11.16,1.59-.22,3.1-.54,4.73-.4,4.72.65,8.52,2.47,11.83,5.72.86,2.93,2.43,5.62,3.93,8.33-1.28-1.26-2.45-2.62-3.46-4.1.92,4.62,5.5,7.03,6.64,11.28.47,3.28-9.38,11.78-11.66,13.62h-12.12"/>
      <path class="cls-3" d="M283.01,161.04h8.19c2.01-7.03,5.47-16.77,4.27-24.19-.57-3.51-3.54-5.66-5.44-8.55-2.25-3.45-3.96-7.25-5.33-11.12-5.03-14.25-6.62-28.79-16.1-41.19,2.27,1.93,4.28,4.02,6.12,6.24,8.26-9.95,17.9-18.92,23.33-30.89,4.03-8.87,4.88-27.65-9.68-27-4.4-.02-8.51,2.53-9.32,7.06-.49,9,8.18,1.14,11.23,3.88,3.54,3.76,1.55,9.07-.67,12.82-4.3,8.13-11.73,17.93-20.95,20.58-8.12,1.38-15.99-3.64-24.32-2.86-8.36.79-16.12,4.55-24.33,6.16,4.24,0,8.42-.58,12.76-.21-4.92,1.23-8.97,3.34-14.17,3.08-4.79-.24-9.1-1.51-13.57-3.14-7.22-2.63-15.56.85-22.42-2.2,1.76,1.32,3.64,2.52,5.27,4.03-12.98-2.02-17.44-19.03-21.59-29.29-1.48-3.67-5.58-10.68-7.73-3.94-.88,2.74-.3,5.11-3.73,6.19-3.51,1.1-4.18-2.14-6.86-3.83-.29,1.75.21,3.13.62,4.85-2.65.43-5.6,1.35-7.2,3.68-.51,1.8-.98,4.14-2.56,5.33-.27.13-.54.26-.81.39-6.72,1.84-1.57,15.26,2.25,17.54,5.17,1.97,12.94,2.02,16.21,7.26-2.51-1.33-5.13-2.17-7.83-2.76,6.82,5.99,7.86,16.7,8.5,25.16l.59-2.08c1.03,6.75,3.92,13.1,7.14,19.05-.59-1.85-1.17-3.7-1.76-5.55,4.19,6.08,9.45,9.67,14.81,14.61-3.06-2.25-6.69-3.36-9.85-5.2,1.95,2.19,1.04,8.39,1.22,11.25.17,2.64.31,5.29.29,7.94l-.17,3.97s-.06,2.11-.33,2.89-9.91,9.73-10.08,10.02,12,1.23,15.06,0,4.57-11.86,4.57-11.86l.52-4.15c.1-.92.2-1.83.32-2.72.82-6.56,2.83-14.17.77-20.58-.62-1.43-1.57-2.7-2.76-3.72-.22-.44.44-.88.22-1.33,6.11,4.89,4.16,15.64,3.68,22.48-.13,1.93-.28,3.96-.49,6.02,0,0-.92,6.56-1.64,9.1s-2.95,6.76-2.95,6.76l10.4.4,2.15-8.23,2.07-7.12c.85-2.83,1.72-5.65,2.58-8.47,1.41-4.62,3.05-9.36,2.8-14.25-.83-3.56-2.69-6.84-4.23-10.23,3.62,2.58,5.27,6.45,6.11,10.57,7.65,4.81,18.1,4.35,26.62,2.12-2.97-.08-5.91-.23-8.85-.97,8.44-.53,16.58-2.12,25.06-.89h-.01c2.99.13,5.6.99,8.23,2.4-5.14-5.43-12.36-8.17-18.46-12.34,4.75,1.41,9.34,3.19,13.65,5.67,4.52,2.61,7.96,6.78,11.58,10.49,4.27,4.38,8.95,7.74,14.36,10.59,4.14,2.19,10.18,3.49,13.32,7.08,1.65,1.37-.48,11.42-.7,13.18M139.01,73.11l1.55,1.11c-.56-.31-1.07-.68-1.55-1.11Z"/>
    </g>
    <path class="cls-1" d="M515.17,148.55s0,0,0,0c-.74-2.13-.11-.3,0,0Z"/>
    <path class="cls-1" d="M541.06,152.91s0,0,0,0c0,0,.01,0,.02.01,0,0,0,0,0,0Z"/>
    <g>
      <path class="cls-2" d="M663.44,89.68c.36-5.84,1.83-11.8,1.07-17.67-.07-1.79-1.29-3.14-2.18-4.58-.53,3.16.49,6.6.16,9.9-.38,3.85-1.33,7.72-3.04,11.21-.14-2.16-.38-4.34-.83-6.47-1.13,3.42-1.44,7.08-2.32,10.6-.97,3.91-2.13,7.84-2.14,11.91-1.33-2.55-1.97-4.85-2.24-7.42-2.12,3.64-4.57,7.06-7.41,10.18,2.15,7.84,7.9,8.27,14.59,11.24,7.2,3.2,14.13,7.2,19.99,12.51,3.55,5.49,1.55,13.31,5.48,18.26,3.08,3.1,11.39,6.83,11.15-.77-.08-2.39-1.46-5.06-2.05-7.38-.75-2.95-1.64-5.84-2.72-8.68-1.99-5.21-3.33-11.67-6.83-16.07-4.04-5.08-9.38-9.58-14.12-14-4.06-3.79-6.93-6.93-6.58-12.75ZM671.06,103.4c-.11-.1-.29-.27-.58-.54.24.22.45.42.58.54ZM669.36,101.81c.1.09.23.22.38.35-.16-.15-.29-.27-.38-.35Z"/>
      <path class="cls-2" d="M596.31,152.12c2.3,1.45,3.97,3.01,4.56,3.51.29.46,1.3,1.42,1.99,2.78l-14.67,1c-3.22-3.43-8.47-8.44-11.88-11.31-3.42-6.37-2.04-14.09-6.2-20.27-3.96-5.88-11.16-8.51-17.47-11.13,2.19-2.1,4.69-3.67,8.25-3.63,8.93.44,17.8,4.5,26.28,7,4.44,6.76-.85,16.36,2.31,23.84.6.97,2.6,4.21,3.05,4.72.91,1.04,1.17,1.46,1.68,1.91.78.68,1.61,1.3,2.52,1.82"/>
      <path class="cls-2" d="M627.79,139.17c.67-.52,1.3-1.04,1.74-1.58-3.42-11.73-20.57-10.47-27.07-19.05,0,0-.02,0-.02,0,.04-.69.1-1.38.18-2.07.3-5.79,4-10.87,6.77-16.42-2.13,1.82-4.25,3.85-5.88,6.25-4.08,3-7.95,7.03-13.54,6.23,2.98,1.7,5.96,5.37,9.58,4.89,0,.03,0,.07-.01.1-7.91,1.01-15.47-3.08-22.89-5.13-6.03-1.66-12.21-2.62-18.32-3.83,2.59-1.15,5.79-2.52,8.99-3.43-5.63-.75-13.39-.89-16.76,3.64-.01-7.66-1.66-15.66-5.89-22.13,2.85,8.9,3.85,19.11,2.49,28.36-.79,1.66-1.31,3.45-1.54,5.28-2.08,5.7-7.16,9.28-12.44,11.78-6.82,3.24-13.12,5.8-19.48,10.04-1.16,1.16.33,3.65,1.46,6.43.03.08.02.07,0,0,1.19,3.37,3.21,6.58,6.12,8.8l.22.19h-15.92c-1.46-5.95-3.27-11.41-5.71-17.03-3.49-5.42,1.43-7.66,5.05-10.88,5.08-5.07,3.28-12.46,3.7-18.79.53-8.04,1.17-15.91,1.17-23.99-1.06,2.65-1.87,5.3-2.49,8.02-.51-9.65-.41-19.1,4.03-27.96-.07-.93-.57-1.76-1.79-2.45-7.08-4.38-15.1-10.78-16.8-19.37,2.99,4.32,6.91,7.82,12.18,9.66-4.84-4.84-10.28-10.28-12.31-17.15.91-5.75,4-10.13,8.3-13.88.9-.58,1.94-1.02,3.19-1.29-.63,8.31.58,17.08,6.9,23.2,6.03,5.85,12.54,6.98,20.12,3.78,7.77-3.27,16.8-4.48,25.16-3.29,4.4.62,8.5,2.38,12.9,3.01,4.43.63,8.97.59,13.43.17,11.92-.4,24.21-2.62,34.07-10.51-4.8,2.4-9.9,3.9-15.1,5.15,6.16-2.8,12.49-6.06,17.49-10.69,2.65-2.45,4.58-5.35,6.71-8.23,1.34-1.81,4.11-3.48,4.11-5.44,4.35,2.61,7.83,11.2,13.82,9.89.59-.04,1.19-.13,1.79-.28,4.52-2.26,7.97-5.58,7.37-10.96.31,4.11-3.95,6.34-6.17,8.55-1.01.55-2.08.8-3.22.76-2.79-.76-5.19-3.16-8.11-6.08-3.4-4.14-3.87-10.59-4.93-15.68,2.5-5.15,10.39-5.41,15.15-4.43,3.19.66,5.43.77,8.64.37,3.55-.45,5.77.15,9.24.65,5.09.73,9.65-.87,13.38,3.54,1.79,2.11,3.51,4.79,4.69,7.27,1.11,2.33.51,6.56,2.24,8.29,4.61,4.1,10.89,5.49,15.72,9.25.81.63,1.13,1.44.96,2.43-2.14,5.18-3.24,11.02-8.14,14.5-3.72,2.35-8.19,2.55-12.44,2.06-9.28-3.48-18.33-.91-18.34,9.4-1.7,7.47,1.41,14.98-2.26,22.31-.33-2.47-.86-5.02-1.62-7.38-2.05,7.36-2.41,15.02-4.85,22.33-.14-2.47-.27-4.94-.4-7.41-4.2,9.53-10.17,18.36-18.35,24.91v.08c-1.24.89-2.54,1.73-3.85,2.53,3.03,5.26,9.46,7.31,13.22,11.91,5.3,6.48-.82,13.74-5.32,18.79l-2.59,2.81c-1.48,1.55-3.8,2.6-6.01,2.87-.73.09-1.47.01-2.13-.31-.57-.28-.65-.5-.48-.29-1.58-1.31-2.45-2.81-3.1-4.47-.35-4.16.65-6.08,3.97-8.6"/>
    </g>
    <path d="M38.6,227.95c-.76.75-3.08,1.13-6.97,1.13-2.7.54-5.89.11-9.57-1.3l-3.41-1.14-5.03-2.43c-.43,0-.7.03-.81.08-.11.05-.38-.08-.81-.41-.65-.54-1.41-.97-2.27-1.3-2.16-1.51-3.68-2.86-4.54-4.05-3.46-5.51-5.19-10.11-5.19-13.78,0-.43.54-1.24,1.62-2.43,2.16-2.59,4.86-3.89,8.11-3.89,1.3.11,2.32.54,3.08,1.3l5.35,6.97c.86.87,1.84,1.73,2.92,2.59l2.11,2.27,3.24,2.76c.43.22.86.32,1.3.32.43.22,1.62.49,3.57.81,2.16-.54,4-1.13,5.51-1.78.97-.97,1.84-1.73,2.59-2.27l2.27-2.59c.22-.22.59-1.08,1.14-2.59,0-1.4.02-2.35.08-2.84.05-.49-.14-1.81-.57-3.97-.11-.32-.87-1.19-2.27-2.59-.65-1.3-1.57-2.7-2.76-4.22-.65-.65-3.79-2.38-9.41-5.19l-3.08-1.78-2.92-2.59c-1.41-.43-3.41-1.89-6-4.38-1.08-.75-1.89-1.35-2.43-1.78-.65-.22-2.43-2.05-5.35-5.51,0-.22-.92-2.27-2.76-6.16l-1.46-6.32.65-4.22c-.65-2.81-.87-4.92-.65-6.32.43-.65.97-1.95,1.62-3.89-.32-1.62,1.14-4.81,4.38-9.57,0-.65,2.38-3.24,7.14-7.78l5.51-2.92,2.59-1.14c.97-.11,2.3-.27,3.97-.49,1.68-.21,4.19-.21,7.54,0,3.35.22,5.46.65,6.32,1.3.75.32,2.92,1.78,6.49,4.38,4.76,4.22,7.35,8,7.78,11.35,1.84,5.51,1.95,11.41.32,17.68,0,.43-1.52,1.3-4.54,2.59l-4.05-.16c-3.46-.43-6.76-2.21-9.89-5.35-.87-.54-1.52-2.05-1.95-4.54-.11-2.59-.65-4.16-1.62-4.7-.11-.11-.54-1.08-1.3-2.92-1.84-2.38-3.06-3.57-3.65-3.57s-1.27.16-2.03.49c-3.89,3.14-5.95,6.65-6.16,10.54-.76,3.14.22,6.97,2.92,11.51,1.19,1.73,1.95,2.59,2.27,2.59.65,1.08,1.89,2.43,3.73,4.05l2.27,2.43,6.81,5.03,2.76,2.76,3.08,1.95c1.73.76,3.41,1.78,5.03,3.08,2.16,1.62,4.81,4.65,7.95,9.08.65.97,1.51,3.89,2.59,8.76v6.32l-.81,3.73c-.54.54-1.14,1.62-1.78,3.24,0,.11-.6,1.57-1.78,4.38-.32.54-1.62,1.68-3.89,3.41-3.24,2.59-6.87,4.54-10.87,5.84-.87.21-2.22.27-4.05.16Z"/>
    <path d="M93.41,175.51l-1.78,17.28.97-1.78c.43-.76,2-2.54,4.7-5.34,0-.25,1.67-2.5,5.03-6.73l2.76-2.54,1.46-1.78c2.05-1.27,3.78-1.91,5.19-1.91,2.92-.34,6.05.34,9.41,2.03.75.09,1.73.72,2.92,1.91,1.84,1.1,2.65,2.67,2.43,4.7,0,.17-.06.43-.16.76-2.06,13.21-3.14,22.47-3.24,27.76-.11,5.29.43,9.72,1.62,13.28.86,2.96-.54,5.04-4.22,6.23-.97.51-2.49.59-4.54.25-1.84,0-3.22-.19-4.14-.57-.92-.38-1.87-1.25-2.84-2.6l-.81-2.54c-.43-.68-.65-1.61-.65-2.8l-.65-3.68c.11-.17.16-1.27.16-3.3l.16-3.3c-.32-1.19-.27-3.51.16-6.99l.32-5.46v-3.18c.11-.25-.22-.85-.97-1.78-2.81,1.7-5.95,7.37-9.41,17.02l-4.22,10.16c-1.95,5.42-4.05,8.34-6.32,8.77l-1.78.25c-1.52,0-3.57-.34-6.16-1.02-2.05-1.78-3.08-3.56-3.08-5.34.22-.34.27-.72.16-1.14-.32-1.1-.22-2.62.32-4.57-.11-.25-.16-.59-.16-1.02l.16-1.91c-.22-.42-.43-1.63-.65-3.62-.22-1.99-.22-3.49,0-4.51-.22-.34.11-1.48.97-3.43-.87-1.02-1.35-2.16-1.46-3.43-.43-3.47-.57-6.08-.41-7.81.16-1.73.24-3.37.24-4.89-.22-1.52-.27-3.34-.16-5.46l1.14-10.29,1.14-7.37c0-.59-.24-1.5-.73-2.73-.49-1.23-.62-2.69-.41-4.38.22-1.69.46-2.77.73-3.24.27-.46.67-1.72,1.22-3.75,0-1.69.22-2.96.65-3.81l.97-2.29c.11-.59,1.51-1.57,4.22-2.92h1.78c4.22.25,7.3.81,9.24,1.65.86.43,1.08,1.91.65,4.45-.22,3.56-.38,5.76-.49,6.61-.11.85-.38,4.53-.81,11.05-.43,6.52-.65,10.21-.65,11.05Z"/>
    <path d="M175.14,195.03l-6,.49c-3.35,0-6-.33-7.95-.97l.49,3.08c.32,8.98,2.81,14.87,7.46,17.68,1.3.54,2.38.81,3.24.81s2-.43,3.41-1.3c.43-.43.81-1.03,1.14-1.78.11-.97.65-1.4,1.62-1.3,4.43-5.62,7.78-7.84,10.05-6.65,2.27,1.52,3.41,2.7,3.41,3.57,0,.43-.27.92-.81,1.46v.97c0,1.08-.68,3.03-2.03,5.84-1.35,2.81-2.78,5.19-4.3,7.13-.76,1.62-1.73,2.76-2.92,3.41-3.46,2.16-7.14,3.03-11.03,2.59-.87-.11-1.46-.32-1.78-.65-.87-.22-1.52-.27-1.95-.16l-1.3-.16c-.97,0-1.78-.22-2.43-.65-1.08-.65-1.84-.97-2.27-.97-2.81-1.08-4.52-1.89-5.11-2.43-.6-.54-1.11-.92-1.54-1.14-.43-.22-1.46-1.35-3.08-3.41-1.41-1.19-2.22-1.95-2.43-2.27-.65-.97-1.22-1.67-1.7-2.11-.49-.43-.79-1.4-.89-2.92-.43-.54-.65-1.24-.65-2.11l-.65-1.3c0-.75-.32-1.35-.97-1.78-.65-.65-.97-1.46-.97-2.43v-1.3c-.43-.22-.54-.86-.32-1.95v-4.22l-.16-1.46v-1.13c-.11-.43,0-1.35.32-2.76l-.16-1.46c.11-.11.27-.97.49-2.59.43-2.27.92-3.67,1.46-4.22v-1.46c.11-.32.16-.75.16-1.3s.13-1.13.41-1.78c.27-.65,1.11-3.08,2.51-7.3l2.59-5.68c.76-1.62,1.95-3.41,3.57-5.35.11-.54.54-1.51,1.3-2.92l2.11-1.95c.65-.97,1.62-1.67,2.92-2.11,1.51-.75,2.65-1.13,3.41-1.13l4.54-.65c.54.11.92.16,1.14.16h2.11c2.38.22,4.32.7,5.84,1.46,3.24.97,5.62,2.22,7.14,3.73,3.35,3.79,5.03,7.41,5.03,10.87s-.54,6.43-1.62,8.92c-2.7,6.16-4.65,10.05-5.84,11.68-1.95,3.57-4.27,5.35-6.97,5.35ZM175.63,171.68c.43-1.62.38-3.67-.16-6.16-.76-.65-1.78-.97-3.08-.97-1.62,0-3.08,1.52-4.38,4.54-1.73,2.59-3.03,5.46-3.89,8.59h-.16c-1.19,4.54-1.78,6.97-1.78,7.3,1.73.43,3.13.62,4.22.57,1.08-.05,2.32-.62,3.73-1.7,2.49-2.38,4.32-6.43,5.51-12.16Z"/>
    <path d="M208.38,157.95c.32-.76.43-1.48.32-2.17-.11-.68-.06-2.38.16-5.09.54-.76.59-2.25.16-4.46,0-1.27.65-2.61,1.95-4.01s2.7-2.44,4.22-3.12v.13c.43-.34,1.4-.59,2.92-.76,3.67-.42,6.32.47,7.95,2.67-.43.6-.65,2.51-.65,5.73v12.99c.11,2.12.16,5.01.16,8.66v4.84l.65,8.28c0,2.21.16,4.42.49,6.62,0,4.08.11,6.54.32,7.39.22.85.32,1.44.32,1.78v2.04c0,1.87.11,3.23.32,4.08,0,.85.27,1.74.81,2.67-.54,1.27-.54,2.72,0,4.33.54,1.02.7,2.34.49,3.95.65,1.02.86,2.38.65,4.08l.49.76.32,1.15c.43,1.1.24,2.4-.57,3.88-.81,1.48-2.43,2.5-4.86,3.06-2.43.55-5.16-.36-8.19-2.74-.11-.25-.7-.64-1.78-1.15-1.3-.59-2.38-2.59-3.24-5.99-.54-.85-.81-1.74-.81-2.68-1.19-.76-1.78-1.91-1.78-3.44v-2.8c-.11-1.27-.32-2.12-.65-2.55-.32-.34-.6-1.23-.81-2.67l.32-8.53c0-2.8-.11-4.97-.32-6.5v-8.66c-.32-2.8-.49-4.95-.49-6.43s.38-4.48,1.14-8.98c0-.34-.16-.81-.49-1.4.32-1.27.49-2.93.49-4.97Z"/>
    <path d="M238.87,167.77c-.32-1.44-.54-2.25-.65-2.44-.54-.96-.81-1.82-.81-2.59s-.06-1.15-.16-1.15c.22-2.2,1.19-3.86,2.92-4.96,1.73-1.1,4.16-1.37,7.3-.79l5.19,1.73,7.46,1.58,3.73-9.49c.97-1.53,1.48-2.59,1.54-3.16.05-.57.24-1.2.57-1.87.43-1.34.86-2.35,1.3-3.02l.65-2.3c.76-1.24,2.27-2.06,4.54-2.44,1.3-.48,2.43-.48,3.41,0,2.92.1,5.13,1.06,6.65,2.88,0,.48-.16,1.25-.49,2.3-.32,1.06-.6,2.44-.81,4.17l-4.05,14.38h1.3l4.05-.14c.54.1,1.14.14,1.78.14,2.38-.48,4.22-.79,5.51-.93,1.3-.14,2.16-.26,2.59-.36.32.1,1.24.1,2.76,0,1.51-.09,3.08.31,4.7,1.22,1.62.91,2.43,2.01,2.43,3.31s-1.03,2.42-3.08,3.38l-1.46,1.73c-1.73.57-3.24,1.25-4.54,2.01-1.52.77-7.73,2.06-18.65,3.88l-1.14,7.33c.22.48.32.86.32,1.15-.76,4.12-1.41,9.25-1.95,15.39.11,2.21.16,3.69.16,4.46v3.88c-.11.19-.16.82-.16,1.87,0,2.4.32,5.2.97,8.41.65,3.21,1.03,5.15,1.14,5.82.11.67.16,1.44.16,2.3-.11,1.63-.87,2.68-2.27,3.16-3.46,0-6.38-.53-8.76-1.58-1.95-.29-2.81-.67-2.59-1.15-.76-.48-1.62-1.39-2.59-2.73,0-.77-.06-1.2-.16-1.29-.76-.29-1.14-1.05-1.14-2.3-.11-.09-.22-.43-.32-1.01l-1.13-3.6c-.97-1.15-1.3-2.68-.97-4.6,0-.38-.16-.86-.49-1.44v-1.01c0-.77.05-1.34.16-1.73-.54-2.68-.49-5.87.16-9.56.65-3.69,1.08-6.35,1.3-7.98-.22-.48-.11-1.1.32-1.87,0-.86.22-2.2.65-4.03l1.46-8.2c-.65-.19-1.3-.29-1.95-.29-5.73-1.15-8.7-1.87-8.92-2.16l-1.95-1.01c-.76,0-1.84-.36-3.24-1.08-1.41-.72-2.33-1.46-2.76-2.23Z"/>
    <path d="M318.49,228.44l-1.62-.32-2.27-2.27c-.65,0-1.14-.27-1.46-.81-1.19-1.41-3.35-4.22-6.49-8.43l-2.43-8.92c0-1.73-.32-3.24-.97-4.54-1.08-4.86-1.73-7.65-1.95-8.35-.22-.7-.35-2.68-.41-5.92-.06-3.24.08-5.62.41-7.14.32-2.05,2.32-7.13,6-15.24.97-.97,1.57-2.27,1.78-3.89l2.59-3.73c2.38-2.81,4.92-4.87,7.62-6.16,0-.22,1.84-.76,5.51-1.62.75-.11,2.49.16,5.19.81,6.49,1.52,10.54,3.41,12.16,5.68l.49.81c2.05,2.92,3.24,7.41,3.57,13.46-.32,2.7-.6,4.97-.81,6.81-.22,1.84-1.41,5.19-3.57,10.05-1.62,3.03-3.19,5.46-4.7,7.3-2.38,1.73-4,2.59-4.87,2.59-.43.22-1.35.32-2.76.32h-3.73c-.32-.11-1.03-.16-2.11-.16s-2.65-.27-4.7-.81c0,2.38.67,5.76,2.03,10.14,1.35,4.38,2.46,7.05,3.32,8.03,2.27,1.73,4.05,2.87,5.35,3.41,1.3.54,3.03.62,5.19.24,2.16-.38,3.73-1.11,4.7-2.19l4.22-5.19c2.7-3.67,5.46-4,8.27-.97,1.3,1.41,1.81,2.79,1.54,4.14-.27,1.35-1.38,4.03-3.32,8.03-1.62,2.59-3.35,4.76-5.19,6.49-3.35,1.73-5.35,2.59-6,2.59-.97.11-2.49-.06-4.54-.49-1.08.54-2.92.49-5.51-.16,0-.22-.3-.35-.89-.41-.6-.06-1.38-.24-2.35-.57l.32-.16h-1.95l-4.54-2.43h-1.14ZM331.14,164.06c-.22-.54-.95-.75-2.19-.65-1.24.11-2.19.76-2.84,1.95-4.43,7.03-6.81,14.54-7.14,22.54,3.67.87,6.81-.76,9.41-4.87,3.35-10.59,4.27-16.92,2.76-18.97Z"/>
    <path d="M363.57,175.74c0-.97-.11-2.11-.32-3.41v-1.14c.11-.75.05-1.57-.16-2.43,0-1.08.11-2.05.32-2.92,0-2.16.27-3.57.81-4.22,0-.54.75-1.78,2.27-3.73.43-.43,1.24-1.14,2.43-2.11,1.73-.54,2.92-.86,3.57-.97.43-.43,1.89-.27,4.38.49,1.08.11,2.76.49,5.03,1.13.75.22,1.73,1.08,2.92,2.59-.22.43-.57,2.03-1.05,4.78-.49,2.76-.68,5-.57,6.73.65-.54,1.78-1.67,3.41-3.41,1.62-1.73,2.49-2.65,2.59-2.76,2.81-1.3,5.57-2.21,8.27-2.76,3.89-.32,6.43-.05,7.62.81.97.32,1.73.81,2.27,1.46.97.87,1.78,2.35,2.43,4.46.65,2.11.59,3.43-.16,3.97-.65.54-2.81.97-6.49,1.3-.22,0-.97.43-2.27,1.3l-8.43,6.65c-1.73.87-2.92,1.62-3.57,2.27l-3.08,5.68c-.11.22-.22,1.62-.32,4.22-.11,2.59-.11,4.46,0,5.59.11,1.13.11,4.78,0,10.95v6.97c0,3.79-.06,5.97-.16,6.57-.11.59-.54,1.65-1.3,3.16-.32.54-1.35.81-3.08.81-4.22,3.13-6.92,2.97-8.11-.49l-2.11-1.3c-.87-.43-1.41-.97-1.62-1.62-.87-1.19-1.3-1.89-1.3-2.11l-.65-2.27-.97-1.95c-.32-.11-.6-2.19-.81-6.24-.22-4.05-.32-6.54-.32-7.46s-.11-1.92-.32-3c.76-.75,1.11-2.05,1.05-3.89-.06-1.84-.19-3.27-.41-4.3-.22-1.03-.22-1.67,0-1.95.22-.27.16-1.76-.16-4.46-.32-.43-.38-1.24-.16-2.43l-1.46-8.59Z"/>
    <path d="M426.65,117.52l9.08-1.3,11.68-.81,6.16.81c.43.43,1.46.71,3.08.81,3.13-.11,7.35,1.68,12.65,5.35,1.3.43,2.38,1.19,3.24,2.27l6.16,7.46c.21.22.54.79.97,1.7.43.92,1.03,1.97,1.78,3.16-.22,0-.06.43.49,1.3,1.4,2.38,2.05,3.79,1.95,4.22.54.43,1.08,1.84,1.62,4.22.54,2.38.7,4,.49,4.87.11.11,0,1.35-.32,3.73-.76,5.19-2.11,9.03-4.05,11.51l-2.11,3.89-3.57,5.19-2.11,1.95c-3.89,4.33-8.65,7.68-14.27,10.05-.22.11-.54.22-.97.32l-3.89,1.3-6.33,1.62c0,3.14.38,10.38,1.14,21.73.43,3.89.75,6.06.97,6.49,0,3.57-.22,5.97-.65,7.22-.43,1.24-1.13,2.16-2.11,2.76-.97.59-2.65.95-5.03,1.05-.65.21-1.78.02-3.4-.57-1.62-.59-2.92-1.49-3.89-2.68l-.97-5.19c.21-.21-.11-1.24-.97-3.08-.76-.86-1.35-2.38-1.78-4.54l-1.13-15.41-.16-5.19c-6.27.43-10.05-1.3-11.35-5.19-1.08-2.05-1.3-3.41-.65-4.05l.81-2.11c1.3-2.05,3.78-3.08,7.46-3.08h3.41c-.22-.22-.32-.97-.32-2.27l-.65-6.81v-2.92l-.16-2.11c.11-.97.05-2.05-.16-3.24v-.97l-.32-4.05v-3.08l-.16-1.62c0-7.67-.43-12.54-1.3-14.59-3.57,2.05-5.95,3.16-7.13,3.32-1.19.16-3.19-.62-6-2.35-1.19-.97-1.84-2.05-1.95-3.24-1.95-2.7-2.59-4.92-1.95-6.65.22-.86,1.08-2.21,2.6-4.05.11-.43,1.4-1.4,3.89-2.92,1.95-1.95,5.35-3.35,10.22-4.22ZM460.22,136.17c-2.81-1.62-8.27-2.43-16.38-2.43l.97,10.05c.86,5.84,1.62,16.76,2.27,32.76.97-.21,1.62-.49,1.95-.81.86-.65,1.78-.97,2.76-.97,1.4-.32,2.76-1.3,4.05-2.92,3.24-2.7,5.73-4.97,7.46-6.81l5.35-6.16c.32-.11.86-1.32,1.62-3.65.75-2.32,1.24-4.24,1.46-5.76,0-3.13-.32-4.92-.97-5.35,0-.21-.65-1.57-1.95-4.05-.43-.32-1.73-1.14-3.89-2.43l-4.7-1.46Z"/>
    <path d="M489.25,214.06c-.32-5.12-.27-9.05.16-11.79,2.49-10,4.43-17.62,5.84-22.86,0-.12.38-1.61,1.14-4.46,1.19-4.17,2.27-6.9,3.24-8.22,0-.36.43-1.31,1.3-2.86,0-1.07,1.19-2.92,3.57-5.54l1.78-2.14c1.95-1.9,4.7-2.86,8.27-2.86,1.3-.24,2.81-.18,4.54.18,3.13,1.55,6.7,3.87,10.7,6.97l1.62,1.07c.86.24,1.67.54,2.43.89.43,0,1.35.24,2.76.72l2.11,1.79c.97.72,1.57,1.73,1.78,3.04-.65.72-.97,3.04-.97,6.97-.43,5.12-.11,11.14.97,18.04.43,6.43,1.46,13.22,3.08,20.36,0,.6.41,2.2,1.22,4.82.81,2.62,1.16,4.29,1.05,5,0,2.97-2.54,4.47-7.62,4.47-4.97-.36-8.43-2.74-10.38-7.14-.11-.47-.49-1.43-1.13-2.86-1.3-1.43-2-2.62-2.11-3.57l-.32-2.5c-.43-.36-.7-.83-.81-1.43-1.3,2.03-2.92,4.11-4.87,6.25l-3.41,5.89-1.3,1.43c-.11.47-1.24,1.04-3.41,1.7-2.16.65-3.73.74-4.7.27-.54,0-1.3-.12-2.27-.36l-7.13-3.21c-1.62-.47-2.81-1.31-3.57-2.5-1.41-.95-2.11-1.49-2.11-1.61-1.08-2.02-1.57-3.33-1.46-3.93ZM523.47,170.83l-.81-1.61c-1.3,0-3.73,2.92-7.3,8.75-4.22,6.31-7.19,12.56-8.92,18.75-1.19,3.69-1.89,6.73-2.11,9.11,0,3.45.65,5.72,1.95,6.79.54,0,1.16-.42,1.87-1.25.7-.83,1.11-1.43,1.22-1.79.76-.47,1.73-1.84,2.92-4.11,1.4-2.26,2.16-3.45,2.27-3.57l1.46-3.39,2.76-5.18c-.22,0,.11-1.37.97-4.11,1.3-2.5,2-4.4,2.11-5.72l1.62-12.68Z"/>
    <path d="M560.28,164.55c-.76-3.89.05-6.59,2.43-8.11,1.19-.65,2.13-.95,2.84-.89.7.06,3,.68,6.89,1.86.54,0,.92.11,1.13.32.22,0,.54.11.97.33.97,0,1.46.22,1.46.65.97,1.62,1.57,3.51,1.78,5.68.43,4.43.97,8.05,1.62,10.87,0-.11.05-.27.16-.49,2.05-2.59,3.13-4.11,3.24-4.54-.22-.21.16-.81,1.13-1.78.75-2.38,1.3-3.84,1.62-4.38,0-.54.49-1.4,1.46-2.59.75-1.51,1.4-2.51,1.95-3,.54-.49.97-.89,1.3-1.22,1.62-1.62,3.78-2.21,6.49-1.78.32,0,.92-.05,1.78-.16,1.73-.22,2.76-.05,3.08.49,3.35,0,4.65,4.11,3.89,12.32-.43,3.68-1.08,5.79-1.95,6.33-.87.54-2.51,1.13-4.95,1.78-2.43.65-4.13,1.19-5.11,1.62-3.79,1.62-6.22,4.11-7.3,7.46-.11,1.19-.43,2.43-.97,3.73-.22,1.73-.35,2.76-.41,3.08-.06.32-.08.97-.08,1.95,0,2.16-.32,4.22-.97,6.16-.32,2.06-.46,5.33-.41,9.81.05,4.49-.06,7.65-.32,9.49-.27,1.84-.46,2.76-.57,2.76.11.54.16.92.16,1.13v.97c-.33.86-1.35,2.16-3.08,3.89l-2.43.16c-2.49,0-3.84-.16-4.05-.49-1.08-.43-1.89-1.08-2.43-1.95-.65-.11-.97-.54-.97-1.3-.97-.22-1.57-.87-1.78-1.95-1.19-1.3-1.78-2.16-1.78-2.59-1.19-4.11-1.62-7.68-1.3-10.7v-8.27c.21-.65.32-1.03.32-1.14v-1.46c.65-.65.75-1.08.32-1.3v-1.3c.11-.11.19-.49.24-1.14.05-.65.13-1.78.24-3.41.22-1.4-.16-6.16-1.13-14.27-.43-.43-1.19-2.65-2.27-6.65,0-.65-.22-1.4-.65-2.27v-1.46c-.43-1.3-.81-1.97-1.14-2.03-.32-.05-.49-.13-.49-.24Z"/>
    <path d="M612.01,175.66c-.32-1.25-.54-1.96-.65-2.13-.54-.83-.81-1.58-.81-2.25s-.06-1-.16-1c.22-1.92,1.19-3.36,2.92-4.32,1.73-.96,4.16-1.19,7.3-.69l5.19,1.5,7.46,1.38,3.73-8.26c.97-1.33,1.49-2.25,1.54-2.75.05-.5.24-1.04.57-1.63.43-1.17.86-2.04,1.3-2.63l.65-2c.75-1.08,2.27-1.79,4.54-2.13,1.3-.42,2.43-.42,3.41,0,2.92.08,5.13.92,6.65,2.5,0,.42-.16,1.09-.49,2-.32.92-.6,2.13-.81,3.63l-4.05,12.52h1.3l4.05-.13c.54.08,1.13.13,1.78.13,2.38-.42,4.22-.69,5.51-.81,1.3-.13,2.16-.23,2.59-.31.32.08,1.24.08,2.76,0,1.51-.08,3.08.27,4.7,1.06,1.62.79,2.43,1.75,2.43,2.88s-1.03,2.11-3.08,2.94l-1.46,1.5c-1.73.5-3.24,1.09-4.54,1.75-1.52.67-7.73,1.8-18.65,3.38l-1.13,6.38c.21.42.32.75.32,1-.76,3.59-1.41,8.05-1.95,13.39.11,1.92.16,3.21.16,3.88v3.38c-.11.17-.16.71-.16,1.63,0,2.09.32,4.53.97,7.32.65,2.8,1.03,4.49,1.14,5.07.11.58.16,1.25.16,2-.11,1.42-.87,2.34-2.27,2.75-3.46,0-6.38-.46-8.76-1.38-1.95-.25-2.81-.58-2.59-1-.76-.42-1.62-1.21-2.59-2.38,0-.67-.06-1.04-.16-1.13-.76-.25-1.14-.92-1.14-2-.11-.08-.22-.38-.32-.88l-1.13-3.13c-.97-1-1.3-2.34-.97-4.01,0-.33-.16-.75-.49-1.25v-.88c0-.67.05-1.17.16-1.5-.54-2.34-.49-5.11.16-8.32.65-3.21,1.08-5.53,1.3-6.95-.22-.42-.11-.96.32-1.63,0-.75.22-1.92.65-3.5l1.46-7.13c-.65-.17-1.3-.25-1.95-.25-5.73-1-8.7-1.63-8.92-1.88l-1.95-.88c-.76,0-1.84-.31-3.24-.94-1.41-.63-2.33-1.27-2.76-1.94Z"/>
    <path d="M712.71,217.58l-.97-2.76-1.78-10.87c-.54-2.05-.81-3.89-.81-5.51l.65-7.14c0-1.19.05-1.84.16-1.95-1.3,0-3.24,1.57-5.84,4.7-.22.32-.54.87-.97,1.62-4.54,7.24-7.24,15.95-8.11,26.11-.87,1.84-2,2.76-3.41,2.76-2.92-.65-4.54-.97-4.87-.97l-1.13.16h-2.11c-2.49-.21-4.11-1.19-4.87-2.92-.43-.54-.65-1.95-.65-4.22v-2.27l-.49-8.92v-13.3c0-1.51-.11-3.41-.32-5.68-.22-2.49-.27-6.41-.16-11.76.11-5.35.05-8.21-.16-8.59-.22-.38-.33-.89-.33-1.54s.16-1.3.49-1.95c.32-.65,1.78-1.35,4.38-2.11,1.4-.86,2.59-1.3,3.57-1.3,1.51.32,3.46.97,5.84,1.95,1.62.32,2.43,1.89,2.43,4.7.21,4.65.24,8,.08,10.05-.16,2.06-.14,6.22.08,12.49,8-15.35,15.13-24.59,21.41-27.73.54-.54,1.35-.81,2.43-.81s2.32.54,3.73,1.62c1.4,1.08,2.38,1.78,2.92,2.11.54.32,1.16.87,1.87,1.62.7.76,1.27,1.24,1.7,1.46,1.3,2.16,1.57,7.24.81,15.24-.11,1.19-.22,2.25-.32,3.16-.11.92-.16,2.89-.16,5.92s.05,5.14.16,6.32c.32,3.79.49,6,.49,6.65l.81,6.16c1.08,2.49,1.65,4.41,1.7,5.76.05,1.35,1,3.49,2.84,6.41.75,1.62.43,2.92-.97,3.89-2.16,1.08-3.32,1.54-3.49,1.38-.16-.16-.79-.06-1.87.33-1.08.38-3.03.46-5.84.24-1.41-.32-2.81-1.19-4.22-2.59l-2.43-2.43c-.87-1.3-1.46-2.7-1.78-4.22-.54-.54-.7-.97-.49-1.3Z"/>
    <path d="M778.88,195.03l-6,.49c-3.35,0-6-.33-7.95-.97l.49,3.08c.32,8.98,2.81,14.87,7.46,17.68,1.3.54,2.38.81,3.24.81s2-.43,3.41-1.3c.43-.43.81-1.03,1.13-1.78.11-.97.65-1.4,1.62-1.3,4.43-5.62,7.78-7.84,10.05-6.65,2.27,1.52,3.41,2.7,3.41,3.57,0,.43-.27.92-.81,1.46v.97c0,1.08-.68,3.03-2.03,5.84-1.35,2.81-2.79,5.19-4.3,7.13-.76,1.62-1.73,2.76-2.92,3.41-3.46,2.16-7.13,3.03-11.03,2.59-.87-.11-1.46-.32-1.78-.65-.87-.22-1.51-.27-1.95-.16l-1.3-.16c-.97,0-1.78-.22-2.43-.65-1.08-.65-1.84-.97-2.27-.97-2.81-1.08-4.52-1.89-5.11-2.43-.6-.54-1.11-.92-1.54-1.14-.43-.22-1.46-1.35-3.08-3.41-1.41-1.19-2.22-1.95-2.43-2.27-.65-.97-1.22-1.67-1.7-2.11-.49-.43-.79-1.4-.89-2.92-.43-.54-.65-1.24-.65-2.11l-.65-1.3c0-.75-.33-1.35-.97-1.78-.65-.65-.97-1.46-.97-2.43v-1.3c-.43-.22-.54-.86-.32-1.95v-4.22l-.16-1.46v-1.13c-.11-.43,0-1.35.32-2.76l-.16-1.46c.11-.11.27-.97.49-2.59.43-2.27.92-3.67,1.46-4.22v-1.46c.11-.32.16-.75.16-1.3s.13-1.13.41-1.78c.27-.65,1.11-3.08,2.51-7.3l2.59-5.68c.75-1.62,1.95-3.41,3.57-5.35.11-.54.54-1.51,1.3-2.92l2.11-1.95c.65-.97,1.62-1.67,2.92-2.11,1.51-.75,2.65-1.13,3.41-1.13l4.54-.65c.54.11.92.16,1.14.16h2.11c2.38.22,4.32.7,5.84,1.46,3.24.97,5.62,2.22,7.13,3.73,3.35,3.79,5.03,7.41,5.03,10.87s-.54,6.43-1.62,8.92c-2.7,6.16-4.65,10.05-5.84,11.68-1.95,3.57-4.27,5.35-6.97,5.35ZM779.36,171.68c.43-1.62.38-3.67-.16-6.16-.76-.65-1.78-.97-3.08-.97-1.62,0-3.08,1.52-4.38,4.54-1.73,2.59-3.03,5.46-3.89,8.59h-.16c-1.19,4.54-1.78,6.97-1.78,7.3,1.73.43,3.13.62,4.22.57,1.08-.05,2.32-.62,3.73-1.7,2.49-2.38,4.32-6.43,5.51-12.16Z"/>
    <path d="M809.52,164.55c-.76-3.89.05-6.59,2.43-8.11,1.19-.65,2.13-.95,2.84-.89.7.06,3,.68,6.89,1.86.54,0,.92.11,1.13.32.22,0,.54.11.97.33.97,0,1.46.22,1.46.65.97,1.62,1.57,3.51,1.78,5.68.43,4.43.97,8.05,1.62,10.87,0-.11.05-.27.16-.49,2.05-2.59,3.13-4.11,3.24-4.54-.22-.21.16-.81,1.13-1.78.75-2.38,1.3-3.84,1.62-4.38,0-.54.49-1.4,1.46-2.59.75-1.51,1.4-2.51,1.95-3,.54-.49.97-.89,1.3-1.22,1.62-1.62,3.78-2.21,6.49-1.78.32,0,.92-.05,1.78-.16,1.73-.22,2.76-.05,3.08.49,3.35,0,4.65,4.11,3.89,12.32-.43,3.68-1.08,5.79-1.95,6.33-.87.54-2.51,1.13-4.95,1.78-2.43.65-4.13,1.19-5.11,1.62-3.79,1.62-6.22,4.11-7.3,7.46-.11,1.19-.43,2.43-.97,3.73-.22,1.73-.35,2.76-.41,3.08-.06.32-.08.97-.08,1.95,0,2.16-.32,4.22-.97,6.16-.32,2.06-.46,5.33-.41,9.81.05,4.49-.06,7.65-.32,9.49-.27,1.84-.46,2.76-.57,2.76.11.54.16.92.16,1.13v.97c-.33.86-1.35,2.16-3.08,3.89l-2.43.16c-2.49,0-3.84-.16-4.05-.49-1.08-.43-1.89-1.08-2.43-1.95-.65-.11-.97-.54-.97-1.3-.97-.22-1.57-.87-1.78-1.95-1.19-1.3-1.78-2.16-1.78-2.59-1.19-4.11-1.62-7.68-1.3-10.7v-8.27c.21-.65.32-1.03.32-1.14v-1.46c.65-.65.75-1.08.32-1.3v-1.3c.11-.11.19-.49.24-1.14.05-.65.13-1.78.24-3.41.22-1.4-.16-6.16-1.13-14.27-.43-.43-1.19-2.65-2.27-6.65,0-.65-.22-1.4-.65-2.27v-1.46c-.43-1.3-.81-1.97-1.14-2.03-.32-.05-.49-.13-.49-.24Z"/>
  </g>
</svg>