<?xml version="1.0" encoding="UTF-8" standalone="no"?>
<svg
   xmlns:dc="http://purl.org/dc/elements/1.1/"
   xmlns:cc="http://creativecommons.org/ns#"
   xmlns:rdf="http://www.w3.org/1999/02/22-rdf-syntax-ns#"
   xmlns:svg="http://www.w3.org/2000/svg"
   xmlns="http://www.w3.org/2000/svg"
   viewBox="0 0 432 112"
   height="112"
   width="432"
   xml:space="preserve"
   id="svg2"
   version="1.1"><metadata
     id="metadata8"><rdf:RDF><cc:Work
         rdf:about=""><dc:format>image/svg+xml</dc:format><dc:type
           rdf:resource="http://purl.org/dc/dcmitype/StillImage" /></cc:Work></rdf:RDF></metadata><defs
     id="defs6" /><g
     transform="matrix(1.3333333,0,0,-1.3333333,0,112)"
     id="g10"><g
       transform="scale(0.1)"
       id="g12"><path
         id="path14"
         style="fill:#ebca96;fill-opacity:1;fill-rule:nonzero;stroke:none"
         d="m 962.652,672.875 c 0,0 -12.898,17.637 -14.324,26.871 10.481,-0.773 23.336,-7.34 28.977,-7.055 12.179,3.313 25.555,3.727 25.555,3.727 0,0 5.78,21.344 10.78,22.375 4.99,1.039 28.12,-28.059 29.85,-33.102 1.74,-5.043 51.06,-33.023 69.32,-39.75 44.58,-16.414 173.05,14.457 231.85,-7.781 11.84,-4.484 21.51,-9.402 29.41,-14.683 l -0.01,0.019 c 60.73,-37.09 65.67,-72.469 105.3,-77.902 39.62,-5.434 61.44,24.172 44.21,66.855 -17.24,42.68 26.29,49.281 39.23,9.809 12.95,-39.469 6.51,-106.207 -44.76,-115.258 -51.27,-9.047 -77.09,17.563 -112.19,64.824 v 0 c 1.38,-16.508 -2.02,-34.023 -5.23,-51.558 -8.24,-45.036 15.53,-74.875 27.02,-90.469 11.49,-15.598 -2.13,-76.383 -6.45,-87.301 -4.32,-10.914 -19.76,-20.305 -32.72,-15.137 -12.96,5.176 -5.79,16.582 2.19,20.204 8,3.621 11.53,41.976 10.5,46.972 -1.04,4.992 -57.53,37.699 -62.62,64.887 0,0 -2.57,-34.789 -5.69,-48.606 -3.13,-13.812 -57.18,-65.234 -64.37,-67.515 -21.57,-6.832 -33.83,-1.711 -33.1,8.066 0.71,9.778 13.18,7.453 19.08,11.227 15.07,9.652 39.17,68.679 34.1,76.074 -3.95,5.754 -22.84,21.961 -39.48,44.375 -48.53,-8.738 -101.12,9.125 -107.81,14.961 -7.86,-11.356 -29.13,-80.703 -39.66,-99.586 -10.52,-18.887 -13.63,-22.867 -29.74,-22.383 -16.12,0.488 -27.19,2.715 -25.07,12.387 2.12,9.672 16.58,5.797 24.68,10.816 8.09,5.02 11.59,90.43 11.59,90.43 0,0 -49.81,-8.961 -59.25,-13.176 -9.44,-4.219 -37.527,-23.211 -39.906,-36.375 -2.375,-13.164 -21.851,-20.152 -24.312,-5.929 -2.457,14.226 29.707,69.429 45.848,78.769 16.14,9.34 33.7,9.445 33.7,9.445 -5.07,7.399 -13.43,36.805 -13.46,45.938 -0.03,9.129 -17.95,23.094 -28.893,17.582 -5.215,-2.629 -17.106,-11.836 -23.938,-11.391 -6.828,0.446 -20.289,5.563 -17.984,11.086 2.301,5.52 2.402,12.988 -1.238,21.906 -3.641,8.911 -6.094,13.653 7.066,50.582 5.285,14.84 1.949,14.77 1.949,14.77" /><path
         id="path16"
         style="fill:#000000;fill-opacity:1;fill-rule:nonzero;stroke:none"
         d="m 238.207,95.9531 c 0,-24.6679 -8.168,-44.9179 -24.5,-60.75 -16.336,-15.832 -39,-24.082 -68,-24.75 -7.336,0 -15.168,1.168 -23.5,3.5 -15.332,4.336 -23.332,6.5 -24,6.5 -8,1.668 -16.082,3.4141 -24.25,5.25 -8.164,1.8321 -15.25,5.5821 -21.25,11.25 -9,8 -16.3359,21 -22,39 -7,21 -12.332,34.1639 -16,39.4999 -2.6679,2.668 -5.832,7.332 -9.49997,14 -1,5 -0.08203,9.918 2.75,14.75 2.83207,4.832 6.24997,7.918 10.24997,9.25 2,0.668 5.668,1 11,1 11.668,0 25.918,-1.418 42.75,-4.25 16.836,-2.836 26.25,-5.418 28.25,-7.75 2,-2.332 4.664,-14.336 8,-36 3,-19.9999 7.5,-31.1678 13.5,-33.4999 1.332,-0.664 2.832,-1 4.5,-1 6.336,0 11.75,5.25 16.25,15.75 4.5,10.5 6.75,22.4139 6.75,35.7499 0,29 -9,48.332 -27,58 -41.332,22.332 -70.332,42.996 -87,62 -19.332,22 -27.99997,47.996 -25.99997,78 1.66407,25 10.74997,50.25 27.24997,75.75 16.5,25.496 33.918,40.418 52.25,44.746 7.668,1.668 31,-5.664 70,-22 9.668,-3.664 19.414,-7.5 29.25,-11.5 9.832,-4 17.75,-9.832 23.75,-17.496 9.332,-11.668 14,-31.832 14,-60.5 0,-5.336 -0.168,-13.168 -0.5,-23.5 -0.336,-9 -0.5,-15.336 -0.5,-19 0.332,-2.332 1.5,-6.168 3.5,-11.5 1.664,-3.668 2.336,-7.332 2,-11 -0.668,-14.668 -6.836,-22.836 -18.5,-24.5 -6.664,-1 -19,1.496 -37,7.5 -20,6.332 -32.668,13.164 -38,20.5 -0.668,1 -1,4.332 -1,10 0,5 0.582,16.332 1.75,34 1.168,17.668 1.75,30.5 1.75,38.5 0,14.332 -1.668,21.332 -5.004,20.996 -10.332,-0.664 -18.914,-8.078 -25.746,-22.246 -6.832,-14.168 -10.25,-30.25 -10.25,-48.25 0,-30 8.832,-51.336 26.5,-64 20,-12.668 40,-25.332 60,-38.004 19,-12.328 32.164,-24.664 39.496,-36.996 9.336,-16 14.004,-38.332 14.004,-66.9999" /><path
         id="path18"
         style="fill:#000000;fill-opacity:1;fill-rule:nonzero;stroke:none"
         d="m 505.707,35.4531 c -1.668,-9.664 -5.336,-15.832 -11.004,-18.5 -2.332,-1 -6.496,-1.5 -12.496,-1.5 -11.336,0 -24.836,1.75 -40.504,5.25 -15.664,3.5 -25.164,6.9141 -28.496,10.25 -1.332,1.668 -2,3.668 -2,6 0,2.668 1.5,7.668 4.5,15 2,2.6641 4.164,5.5821 6.5,8.75 2.332,3.168 3.5,7.25 3.5,12.25 0.664,131.3319 -0.336,197.4999 -3.004,198.4999 -4.996,1.664 -16.496,-10.5 -34.496,-36.5 -19.336,-27.668 -29.004,-49.832 -29.004,-66.5 V 57.4531 c 5.336,-5.3359 7.168,-12.332 5.5,-21 -1.996,-10.332 -7.332,-17.332 -15.996,-21 -1.332,-0.6679 -3.336,-1 -6.004,-1 -8.996,0 -22.164,2.0821 -39.496,6.25 -17.332,4.168 -26.832,7.25 -28.5,9.25 -3.668,5.3321 -4,11.5 -1,18.5 0.332,1 1.918,2.75 4.75,5.25 2.832,2.5 4.25,4.9141 4.25,7.25 V 414.453 c 0,2.664 -1.336,6.164 -4,10.496 -2.668,4.336 -3.5,8 -2.5,11.004 2,7 7.168,11.5 15.5,13.496 5.332,1.336 17.832,-0.496 37.5,-5.496 21.332,-5.336 32.996,-10.836 35,-16.504 1.332,-3.664 0.832,-9.164 -1.5,-16.5 -2.332,-7.332 -3.504,-16.332 -3.504,-27 v -93.496 c 18.668,23.668 36.668,35.5 54.004,35.5 11.332,0 25.996,-3.918 44,-11.75 17.996,-7.832 28.332,-14.918 31,-21.25 9.332,-21.332 14,-100.168 14,-236.4999 3.332,-8 4.5,-15 3.5,-21" /><path
         id="path20"
         style="fill:#000000;fill-opacity:1;fill-rule:nonzero;stroke:none"
         d="m 750.203,111.953 c 3,-5 -3.5,-19.8358 -19.5,-44.4999 -17.332,-26.332 -34.332,-44.164 -51,-53.5 -2,-1 -5,-1.5 -8.996,-1.5 -13.004,0 -30.004,4 -51.004,12 -22.332,8 -37,16.668 -44,26 -19.332,25 -28.996,59.6639 -28.996,103.9999 0,42 8.496,78.996 25.496,111 18.336,34.996 41.668,52.832 70.004,53.5 10.332,0.332 22.832,-2.332 37.496,-8 18,-7 32.836,-16.5 44.5,-28.504 3.004,-2.996 5.832,-11.996 8.5,-26.996 3.336,-16 5,-31.668 5,-47 0,-22.668 -3.668,-38.332 -11,-47 -34.332,-11 -69.332,-17.168 -105,-18.5 -0.664,-16.336 1.336,-33.5 6,-51.4999 4.668,-18 9.504,-27.164 14.504,-27.5 6.664,-0.3359 14.664,5.168 23.996,16.5 8.332,9.668 13.5,17.8321 15.5,24.4999 2.332,10 5.504,20.332 9.5,31 5.332,0.668 15.832,-2 31.5,-8 15.668,-6 24.836,-11.336 27.5,-16 z m -89,153 c -5.668,0.664 -13.582,-8.336 -23.75,-27 -10.168,-18.668 -16.082,-36.5 -17.75,-53.5 15,0.668 27,4.332 36,11 5.336,4 8,20.668 8,50 0,12.332 -0.832,18.832 -2.5,19.5" /><path
         id="path22"
         style="fill:#000000;fill-opacity:1;fill-rule:nonzero;stroke:none"
         d="m 882.703,413.449 c 0,-2.332 -0.75,-5.496 -2.25,-9.496 -1.5,-4 -2.418,-6.5 -2.75,-7.5 -2,-6.668 -4,-17 -6,-31 V 58.4531 c 0,-4 1,-7.5859 3,-10.75 2,-3.1679 3,-5.75 3,-7.75 0,-21.3359 -4,-32.83201 -12,-34.49997 -3,-0.66797 -13.586,1.58203 -31.75,6.74997 -18.164,5.1641 -29.082,9.25 -32.75,12.25 -7.332,6.336 -11,12.1641 -11,17.5 0,1.3321 0.668,2.8321 2,4.5 1.336,1.6641 2,4.5 2,8.5 V 407.449 c 0,2.004 -0.582,4.086 -1.75,6.25 -1.164,2.168 -1.75,4.254 -1.75,6.25 0.668,8 6.836,13.336 18.5,16.004 3.332,0.664 10.336,0.664 21,0 12.336,-1 23.004,-2.836 32.004,-5.504 13.664,-4 20.496,-9.664 20.496,-17" /><path
         id="path24"
         style="fill:#000000;fill-opacity:1;fill-rule:nonzero;stroke:none"
         d="m 1096.7,269.449 c -0.33,-5.996 -2.33,-11.332 -6,-15.996 -3.66,-4.668 -7.66,-7 -12,-7 -1.33,0 -2.5,0.164 -3.5,0.5 -4.66,1.664 -15.16,2.5 -31.5,2.5 V 51.9531 c 0,0.3321 1.09,-2.3359 3.25,-8 2.17,-5.6679 3.25,-10.6679 3.25,-15 0,-9.664 -6.66,-14.832 -20,-15.5 -7,-0.332 -19.83,2.6641 -38.493,9 -20.336,6.668 -31.168,12.8321 -32.504,18.5 -0.664,2.3321 0.504,7.25 3.5,14.75 3,7.5 4.5,13.25 4.5,17.25 V 249.953 h -17 c -6.332,0 -14.164,5.582 -23.5,16.75 -9.332,11.168 -14,20.082 -14,26.75 0,5 1.918,9.496 5.754,13.5 3.832,4 8.082,6 12.75,6 h 35.996 v 45 c -4.996,6.664 -7.496,13.832 -7.496,21.5 0,6.996 2.996,11.332 9,13 2.996,0.664 7.164,1 12.496,1 12.336,0 26.747,-1.918 43.247,-5.754 16.51,-3.832 27.25,-7.75 32.25,-11.746 2.34,-2.004 3.5,-4.336 3.5,-7 0,-3.332 -2.66,-8.336 -8,-15 -5.33,-6.668 -8.16,-11.336 -8.5,-14 v -27 h 16 c 3.34,0 10.34,-6 21.01,-18 10.66,-12 15.99,-20.5 15.99,-25.504" /><path
         id="path26"
         style="fill:#000000;fill-opacity:1;fill-rule:nonzero;stroke:none"
         d="m 1319.2,111.953 c 3,-5 -3.5,-19.8358 -19.5,-44.4999 -17.33,-26.332 -34.33,-44.164 -51,-53.5 -2,-1 -5,-1.5 -9,-1.5 -13,0 -30,4 -51,12 -22.33,8 -36.9,16.7422 -44,26 -19.23,25.0742 -28.57,68.4959 -28.57,112.8279 0,42 11.96,96.617 28.86,128.664 18.43,34.946 41.67,52.774 70,53.5 10.33,0.262 22.85,-2.32 37.5,-8 18,-6.976 32.8,-16.539 44.5,-28.504 2.96,-3.027 5.61,-12.043 8.5,-26.996 3.1,-16.043 5,-31.668 5,-47 0,-22.668 -7.03,-55.996 -14.36,-64.66 -34.34,-11.004 -69.34,-17.168 -105,-18.504 -0.67,-16.332 0.91,-42.332 5.57,-60.3279 4.67,-18 9.5,-27.164 14.5,-27.5 6.67,-0.3359 14.67,5.168 24,16.5 8.34,9.668 13.5,17.8321 15.5,24.4999 2.34,10 5.5,20.332 9.5,31 5.34,0.668 15.84,-2 31.5,-8 15.67,-6 24.84,-11.336 27.5,-16 z m -86.9,172.762 c -5.66,0.668 -13.58,-8.336 -23.74,-27 -10.17,-18.664 -16.09,-36.5 -17.76,-53.5 15,0.668 27.02,4.32 36,11 5.35,3.98 8,20.668 8,50 0,12.336 -0.83,18.836 -2.5,19.5" /><path
         id="path28"
         style="fill:#000000;fill-opacity:1;fill-rule:nonzero;stroke:none"
         d="m 1545.2,289.453 c 1.34,-5.336 -0.5,-9.668 -5.5,-13 -4,-2 -7.83,-4.168 -11.5,-6.5 -21,-32 -49.5,-75.168 -85.5,-129.5 0,-52.9999 0.17,-80.3319 0.5,-81.9999 0.34,-1.664 1.59,-5.9179 3.75,-12.75 2.17,-6.832 3.25,-12.25 3.25,-16.25 0,-6.332 -2.83,-10.6679 -8.5,-13 -3.66,-1.6679 -8.66,-2.5 -15,-2.5 -12.66,0 -26.66,2.836 -42,8.5 -19.33,6.668 -29,15.168 -29,25.5 0,3 1.34,7.8321 4,14.5 2.67,6.668 4,12.168 4,16.5 V 276.953 c -3.66,18.664 -5.5,28.332 -5.5,29 0,10.332 4.67,16.832 14,19.5 4,1 8.84,1.5 14.5,1.5 11.67,0 23.92,-1.918 36.75,-5.75 12.83,-3.836 20.42,-7.918 22.75,-12.25 0.67,-1.332 1,-3 1,-5 0,-1.668 -2.33,-9.668 -7,-24 v -24 c 8,14.332 15.84,28.664 23.5,42.996 10.34,18.004 18,27.504 23,28.5 7.33,1.336 18.5,-2.996 33.5,-13 15,-9.996 23.34,-18.328 25,-24.996" /><path
         id="path30"
         style="fill:#000000;fill-opacity:1;fill-rule:nonzero;stroke:none"
         d="m 1753.7,406.453 c 32,-17 48,-46.168 48,-87.5 0,-30 -11.83,-68 -35.5,-114 -26.33,-51.336 -53.17,-77 -80.5,-77 -5.33,0 -11.25,2.582 -17.75,7.75 -6.5,5.164 -12.92,10.25 -19.25,15.25 V 65.9531 c 0,-4.332 0.84,-9.332 2.5,-15 2.34,-8 3.83,-13.5 4.5,-16.5 0.66,-3 -0.59,-8.414 -3.75,-16.25 -3.17,-7.832 -7.75,-12.08201 -13.75,-12.74997 -6,-0.66797 -19,3.5 -39,12.49997 -21,9.336 -34,17.668 -39,25 -3,4.668 -3,11.6641 0,21 2.33,7 3.5,12.5 3.5,16.5 V 389.453 c 0,2 -1.17,5.668 -3.5,11 -2.33,5.332 -3.33,9.164 -3,11.5 2,15.996 8,24 18,24 1.67,0 8.42,-1.918 20.25,-5.754 11.84,-3.832 21.25,-5.914 28.25,-6.25 10,-0.332 22.75,2.336 38.25,8.004 15.5,5.668 26.75,8.496 33.75,8.496 4,0 8,-0.496 12,-1.496 7.67,-2.004 15.66,-7 24,-15.004 10,-9.332 17.33,-15.164 22,-17.496 z m -41.5,-38.5 c -7.67,0 -18.34,-4.168 -32,-12.5 -13.67,-8.336 -24.16,-17.5 -31.5,-27.5 v -120.5 c 18,5.664 35,26.164 51,61.5 14.66,32 22,59.168 22,81.496 0,11.668 -3.17,17.504 -9.5,17.504" /><path
         id="path32"
         style="fill:#000000;fill-opacity:1;fill-rule:nonzero;stroke:none"
         d="m 2050.2,35.4531 c -0.33,-4.664 -2.34,-8.6679 -6,-12 -3.67,-3.332 -7.84,-4.6679 -12.5,-4 -41.33,5.6641 -64.33,13.5 -69,23.5 -0.67,1.3321 -1,2.6641 -1,4 0,1.668 0.75,3.5 2.25,5.5 1.5,2 2.41,3.75 2.75,5.25 0.33,1.5 1,2.918 2,4.25 0.67,2.668 0.83,8.5 0.5,17.5 -4,-3 -10,-11 -18,-24 -8.33,-14.332 -15.67,-24.332 -22,-30 -10.67,-10 -22.83,-15 -36.5,-15 -8,0 -15.83,3.168 -23.5,9.5 -3.67,3 -10.16,9.5 -19.5,19.5 -16,18 -24.67,27.8321 -26,29.5 -7,9.3321 -10.5,18.168 -10.5,26.5 0,2.668 0.33,5.3319 1,7.9999 6.33,29.336 26,57.168 59,83.5 24,19 58,39.164 102,60.496 0,10.668 -2.67,17.504 -8,20.504 -3.34,2 -15,-1.75 -35,-11.25 -20,-9.5 -34,-17.582 -42,-24.25 -2.67,-2.668 -7,-6.336 -13,-11 -5.67,-3.336 -10.83,-4.336 -15.5,-3 -3.67,1 -11.5,7 -23.5,18 -12,10.996 -18.5,18.332 -19.5,22 -2.67,9 0.17,16 8.5,21 0.33,0.332 7,2.332 20,6 12.33,6.668 24.67,13.332 37,19.996 26,12.336 48,19.004 66,20.004 7.67,0.332 16.33,-3.668 26,-12 8.67,-7.668 17.41,-15.25 26.25,-22.75 8.83,-7.5 17.91,-14.754 27.25,-21.75 10.67,-9.336 16,-18.336 16,-27 V 52.9531 c 3.33,-8.6679 4.83,-14.5 4.5,-17.5 z m -80,145.9999 c -16.34,-6.332 -30.33,-16 -42,-29 -8.66,-10.668 -17.34,-21.164 -26,-31.5 -7,-7 -13.58,-16.086 -19.75,-27.2499 -6.17,-11.164 -9.25,-19.4179 -9.25,-24.75 0,-2.6679 1,-4 3,-4 7,0 22.67,15.086 47,45.2499 24.33,30.168 40,53.914 47,71.25" /><path
         id="path34"
         style="fill:#000000;fill-opacity:1;fill-rule:nonzero;stroke:none"
         d="m 2284.7,289.453 c 1.33,-5.336 -0.5,-9.668 -5.5,-13 -4,-2 -7.84,-4.168 -11.5,-6.5 -21,-32 -49.5,-75.168 -85.5,-129.5 0,-52.9999 0.16,-80.3319 0.5,-81.9999 0.33,-1.664 1.58,-5.9179 3.75,-12.75 2.17,-6.832 3.25,-12.25 3.25,-16.25 0,-6.332 -2.84,-10.6679 -8.5,-13 -3.67,-1.6679 -8.67,-2.5 -15,-2.5 -12.67,0 -26.67,2.836 -42,8.5 -19.33,6.668 -29,15.168 -29,25.5 0,3 1.33,7.8321 4,14.5 2.66,6.668 4,12.168 4,16.5 V 276.953 c -3.67,18.664 -5.5,28.332 -5.5,29 0,10.332 4.67,16.832 14,19.5 4,1 8.83,1.5 14.5,1.5 11.66,0 23.91,-1.918 36.75,-5.75 12.83,-3.836 20.41,-7.918 22.75,-12.25 0.66,-1.332 1,-3 1,-5 0,-1.668 -2.34,-9.668 -7,-24 v -24 c 8,14.332 15.83,28.664 23.5,42.996 10.33,18.004 18,27.504 23,28.5 7.33,1.336 18.5,-2.996 33.5,-13 15,-9.996 23.33,-18.328 25,-24.996" /><path
         id="path36"
         style="fill:#000000;fill-opacity:1;fill-rule:nonzero;stroke:none"
         d="m 2497.2,269.449 c -0.34,-5.996 -2.34,-11.332 -6,-15.996 -3.67,-4.668 -7.67,-7 -12,-7 -1.34,0 -2.5,0.164 -3.5,0.5 -4.67,1.664 -15.17,2.5 -31.5,2.5 V 51.9531 c 0,0.3321 1.08,-2.3359 3.25,-8 2.16,-5.6679 3.25,-10.6679 3.25,-15 0,-9.664 -6.67,-14.832 -20,-15.5 -7,-0.332 -19.84,2.6641 -38.5,9 -20.34,6.668 -31.17,12.8321 -32.5,18.5 -0.67,2.3321 0.5,7.25 3.5,14.75 3,7.5 4.5,13.25 4.5,17.25 V 249.953 h -17 c -6.34,0 -14.17,5.582 -23.5,16.75 -9.34,11.168 -14,20.082 -14,26.75 0,5 1.91,9.496 5.75,13.5 3.83,4 8.08,6 12.75,6 h 36 v 45 c -5,6.664 -7.5,13.832 -7.5,21.5 0,6.996 3,11.332 9,13 3,0.664 7.16,1 12.5,1 12.33,0 26.75,-1.918 43.25,-5.754 16.5,-3.832 27.25,-7.75 32.25,-11.746 2.33,-2.004 3.5,-4.336 3.5,-7 0,-3.332 -2.67,-8.336 -8,-15 -5.34,-6.668 -8.17,-11.336 -8.5,-14 v -27 h 16 c 3.33,0 10.33,-6 21,-18 10.66,-12 16,-20.5 16,-25.504" /><path
         id="path38"
         style="fill:#000000;fill-opacity:1;fill-rule:nonzero;stroke:none"
         d="m 2758.2,56.4531 c 2.66,-6.332 4,-12.664 4,-19 0,-10 -3.84,-16.832 -11.5,-20.5 -2.34,-1 -6.5,-1.5 -12.5,-1.5 -11.34,0 -24.84,1.75 -40.5,5.25 -15.67,3.5 -25.17,6.9141 -28.5,10.25 -1.67,2 -2.5,4.168 -2.5,6.5 0,3.668 2.5,9.5821 7.5,17.75 5,8.168 7.5,14.0821 7.5,17.75 0.66,131.3319 -0.34,197.4999 -3,198.4999 -4.67,1.664 -16.17,-13.336 -34.5,-45 -19.34,-33.332 -29,-58.5 -29,-75.5 V 57.4531 c 4.33,-4.332 6.5,-9.664 6.5,-16 0,-12.6679 -5.67,-21.332 -17,-26 -1.34,-0.6679 -3.34,-1 -6,-1 -9,0 -22.17,2.0821 -39.5,6.25 -17.34,4.168 -27,7.586 -29,10.25 -2,2.668 -3,5.6641 -3,9 0,3.3321 1.91,7.3321 5.75,12 3.83,4.668 5.75,7.6641 5.75,9 V 293.453 c 0,2.668 -1.34,6.164 -4,10.5 -2.67,4.332 -3.5,7.996 -2.5,11 2,7 7.16,11.5 15.5,13.5 5.33,1.332 17.83,-0.5 37.5,-5.5 21.33,-5.336 33,-10.836 35,-16.5 1.33,-3.668 0.83,-9.168 -1.5,-16.504 -3.67,-11.664 -5.5,-18.328 -5.5,-19.996 0,-3.668 0.66,-7.668 2,-12.004 5,16.668 12,31.504 21,44.504 11,15.664 22,23.5 33,23.5 11.33,0 26,-3.918 44,-11.75 18,-7.832 28.33,-14.918 31,-21.25 9.33,-21.332 14,-100.168 14,-236.4999" /><path
         id="path40"
         style="fill:#000000;fill-opacity:1;fill-rule:nonzero;stroke:none"
         d="m 3006.19,111.953 c 3.01,-5 -3.49,-19.8358 -19.5,-44.4999 -17.33,-26.332 -34.33,-44.164 -50.99,-53.5 -2,-1 -5,-1.5 -9,-1.5 -13,0 -30.01,4 -51.01,12 -22.33,8 -37,16.668 -43.99,26 -19.34,25 -29,59.6639 -29,103.9999 0,42 8.5,78.996 25.49,111 18.34,34.996 41.67,52.832 70.01,53.5 10.33,0.332 22.83,-2.332 37.5,-8 18,-7 32.83,-16.5 44.49,-28.504 3.01,-2.996 5.84,-11.996 8.51,-26.996 3.33,-16 5,-31.668 5,-47 0,-22.668 -3.67,-38.332 -11.01,-47 -34.33,-11 -69.33,-17.168 -104.99,-18.5 -0.67,-16.336 1.33,-33.5 5.99,-51.4999 4.67,-18 9.51,-27.164 14.51,-27.5 6.66,-0.3359 14.66,5.168 23.99,16.5 8.34,9.668 13.51,17.8321 15.5,24.4999 2.33,10 5.51,20.332 9.51,31 5.33,0.668 15.83,-2 31.5,-8 15.66,-6 24.83,-11.336 27.49,-16 z m -89,153 c -5.66,0.664 -13.58,-8.336 -23.74,-27 -10.17,-18.668 -16.09,-36.5 -17.76,-53.5 15.01,0.668 27.01,4.332 36.01,11 5.33,4 7.99,20.668 7.99,50 0,12.332 -0.83,18.832 -2.5,19.5" /><path
         id="path42"
         style="fill:#000000;fill-opacity:1;fill-rule:nonzero;stroke:none"
         d="m 3232.19,289.453 c 1.33,-5.336 -0.5,-9.668 -5.5,-13 -4,-2 -7.83,-4.168 -11.5,-6.5 -21,-32 -49.5,-75.168 -85.5,-129.5 0,-52.9999 0.17,-80.3319 0.5,-81.9999 0.34,-1.664 1.59,-5.9179 3.75,-12.75 2.17,-6.832 3.25,-12.25 3.25,-16.25 0,-6.332 -2.83,-10.6679 -8.5,-13 -3.66,-1.6679 -8.67,-2.5 -14.99,-2.5 -12.68,0 -26.68,2.836 -42.01,8.5 -19.33,6.668 -28.99,15.168 -28.99,25.5 0,3 1.33,7.8321 4,14.5 2.66,6.668 3.99,12.168 3.99,16.5 V 276.953 c -3.67,18.664 -5.49,28.332 -5.49,29 0,10.332 4.66,16.832 13.99,19.5 4.01,1 8.84,1.5 14.51,1.5 11.66,0 23.91,-1.918 36.74,-5.75 12.83,-3.836 20.42,-7.918 22.75,-12.25 0.67,-1.332 1,-3 1,-5 0,-1.668 -2.33,-9.668 -7,-24 v -24 c 8,14.332 15.84,28.664 23.5,42.996 10.34,18.004 18,27.504 23,28.5 7.33,1.336 18.5,-2.996 33.5,-13 15,-9.996 23.34,-18.328 25,-24.996" /><path
         id="path44"
         style="fill:#89cff0;fill-opacity:1;fill-rule:evenodd;stroke:none"
         d="m 2047.64,506.363 c 7.61,-0.898 14.52,6.184 18.68,9.93 4.45,3.988 11.12,8.867 16.6,12.582 35.97,24.379 51.87,24.414 77.35,38.477 6.71,3.707 11.67,7.691 17.19,11.859 6.14,4.625 9.52,10.125 17.19,13.195 -3.58,-20.129 -2.94,-27.386 0.67,-46.082 2.91,-15.066 -1.45,-31.91 -3.02,-47.426 -0.78,-7.765 -4.05,-12.918 -5.22,-20.585 -1.16,-7.606 -1.57,-15.688 -4.06,-22.391 -2.26,-6.047 -5.55,-11.609 -8.47,-17.16 -2.83,-5.379 -6.08,-12.324 -9.4,-16.91 -8.26,-11.395 -13.19,-11.247 -9.31,-26.329 1.33,-5.164 1.27,-6.109 1.31,-11.925 0.06,-9.082 6.22,-9.77 7.23,-18.188 1.46,-12.219 5.47,-12.597 6.85,-22.73 0.63,-4.61 -1.1,-9.258 -0.41,-12.606 0.72,-3.515 3.22,-3.027 4.91,-7.851 2.63,-7.473 13.06,-10.371 20.48,-7.989 5.18,1.668 14.06,-0.082 18.68,1.911 2.41,1.035 2.1,1.992 3.21,3.511 2.86,3.93 6.27,1.41 1.08,7.684 l -0.93,1.289 c -0.08,0.133 -0.18,0.34 -0.26,0.473 -1.7,2.699 -2.91,2.628 -4.55,5.89 -2.68,5.321 -9.8,5.27 -13.53,7.477 l -6.55,7.66 c -3.91,5.414 -7.85,32.16 -3.68,39.289 1.65,2.828 3.81,5.012 5.61,7.918 2.83,4.582 4.82,8.926 8.29,12.684 3.33,3.605 5.77,7.675 8.78,12.234 l 1.71,2.047 c 3.93,4.242 8.6,12.324 10.17,13.836 2.81,2.711 6.36,9.304 9.66,11.308 2.71,1.641 2.16,-0.593 4.36,2.641 -1.1,-31.215 -27.23,-28.254 -19.03,-48.414 1.31,-3.231 1.33,-7.871 3.1,-10.961 1.38,-2.418 4.33,-6.121 5.11,-8.965 1.4,-5.18 -0.12,-6.172 2.6,-12.199 2.37,-5.258 6.95,-22.848 7.46,-28.649 0.43,-4.98 -2.02,-9.019 -0.19,-12.574 1.6,-3.097 5.74,-4.922 7.54,-7.433 3.23,-4.504 1.21,-4.297 8.43,-5.86 8.09,-1.754 17.94,-0.886 26.24,0.418 3.13,0.492 2.92,1.176 4.26,3.215 2.62,3.973 0.74,1.106 4,3.309 -0.19,2.156 -0.15,2.191 -1.31,3.703 -0.97,1.277 -0.97,0.851 -2.41,2.844 -2.16,3 -2.96,3 -4.51,5.941 -4.99,9.512 -15.41,9.094 -22.5,27.328 -3.09,7.938 -6.45,28.84 -5.48,36.641 0.69,5.535 16.29,26.531 20.64,31.98 1.83,2.278 2.9,4.949 4.44,6.844 3.15,3.875 6.49,7.449 9.06,11.926 1.08,1.871 10.08,13.164 11.98,14.152 2.6,1.348 4.35,2.359 6.02,4.535 1.06,1.375 0.95,2.016 1.9,3.164 l 4.46,4.649 c 5.79,8.429 18.9,25.019 22.17,31.929 4.58,9.684 3.26,24.739 9.3,33.766 10.93,-3.547 22.53,-7.199 34.01,-10.828 11.6,-3.676 23.47,-6.461 34.88,-10.469 10.51,-3.691 23.05,-9.226 33.4,-11.953 12.65,-3.332 44.96,0.207 54.53,-2.848 6.79,-5.25 1.15,-34.621 2.21,-47.968 0.34,-4.309 -0.02,-6.809 -0.6,-11 -0.97,-7.075 1.07,-12.727 1.5,-19.555 0.85,-13.379 0.19,-26.793 3.57,-38.977 1.54,-5.601 2.25,-3.089 2.16,-9.504 -0.06,-3.734 -1.41,-6.546 -0.88,-10.398 0.73,-5.277 2.97,-2.992 5.24,-6.23 1.16,-3.348 -0.33,-7.934 -0.13,-11.77 0.12,-2.234 0.82,-3.84 0.98,-5.516 0.34,-3.671 -0.69,-2.925 -0.66,-5.82 0.04,-4.309 3.87,-4.254 3.27,-9.609 -0.47,-4.309 -3.08,-6.52 -0.28,-11.602 2.82,-5.14 8.39,-4.648 13.21,-5.683 4.38,-0.942 0.32,0.929 4.34,-0.922 4.56,-2.106 5.7,-1.891 10.85,-0.95 5.5,1.012 1.36,0.364 5.07,-0.781 2.14,-0.664 0.89,-1.09 2.6,0.09 2.19,1.512 -0.6,-0.094 1.44,2.305 l 6.41,-0.672 c 0.23,3.609 -0.05,8.734 -1.2,11.64 -1.3,3.286 -0.49,2.122 -1.35,5.379 -0.6,2.27 -6.26,9.465 -7.95,12.149 -3.14,4.984 -6.97,14.055 -7.33,19.832 -0.37,5.918 0.19,6.301 -1.81,11.683 -2.65,7.09 1.09,33.868 1.48,44.008 0.26,6.649 2.93,16.871 4.14,24.11 2.02,12.164 1.74,39.343 9.25,45.691 0.19,-7.555 -1.41,-22.82 -2.98,-30.219 -2.12,-10.015 -1.64,-14.453 -2.55,-26.34 -0.24,-3.257 -0.91,-4.535 -0.98,-7.433 -0.19,-7.797 1.22,-14.547 0.51,-22.402 -0.5,-5.415 -0.77,-10.344 -1.24,-15.719 -0.49,-5.699 -4.36,-8.395 -2.72,-12.91 2.62,-2.961 4.1,-0.93 7.19,-1.844 4.31,-4.801 3.98,-14.371 4.65,-22.051 8.34,-5.426 5.19,-7.98 5.52,-15.07 0.22,-4.801 5.35,-10.129 9.54,-11.418 1.94,-0.594 6.77,-1.68 9,-1.703 2.33,-0.028 3.1,0.441 4.63,0.523 6.07,0.32 5.65,-2.418 13.52,0.418 2.4,0.863 6.56,0.457 8.06,2.477 1.32,2.437 0.16,2.734 -0.62,5.07 -3.18,9.457 3.24,5.961 -8.91,14.195 -6.78,4.594 -5.12,2.762 -10.13,5.5 -3.32,1.817 -4.08,6.625 -4.92,10.817 -7.11,35.32 1.67,49.441 6.69,81.379 3.3,21.054 12.89,28.144 15.53,47.878 1.34,9.969 1.02,18.458 4.03,27.821 5.43,16.894 11.53,22.211 16.59,46.109 2.06,9.723 6.51,13.176 6.47,24.477 l 0.02,26.836 c 1.2,5.129 0.26,-0.371 2.37,4.297 2.3,5.066 3.7,12.609 5.4,18.007 3.1,9.801 1.05,19.172 2.73,29.239 3.25,19.48 19.32,23.218 25.59,37.695 8.05,-0.879 6.77,-2.652 16.15,-0.289 24.07,6.066 34.71,-1.801 47.54,10.773 4.57,4.473 9.14,12.453 9.77,19.379 l 2.32,8.473 c 2.05,4.215 3.14,11.805 0.23,15.469 -4.65,5.859 -19.24,9.765 -25.76,14.109 -7.65,5.086 -1.84,7.66 -2.42,14.539 -0.57,6.699 -3.78,8.188 -7.46,11.887 -8.73,8.793 -11.07,23.492 -33.51,26.5 -6.35,0.847 -12.01,0.144 -17.98,1.758 -10.45,2.824 -22.62,6.472 -33.73,3.992 -5.54,-1.235 -11.24,-5.621 -13.46,-5.922 -6.81,-0.91 -7.13,5.172 -15.11,-0.973 -7.97,-6.129 -25.48,-22.941 -30.36,-29.429 -7.94,-10.567 -5.47,-17.348 -0.4,-29.2 1.97,-4.621 4.51,-8.457 6.49,-12.82 3.58,-7.926 -0.49,-7.668 -5.57,-11.937 -7.46,-6.262 -12.49,-12.707 -20.96,-18.665 -3.73,-2.621 -12.09,-5.429 -17.1,-6.578 -0.95,-0.214 -0.86,-0.125 -1.75,-0.488 -3.49,-1.434 -5.41,-3.223 -9.69,-3.582 -6.12,-0.519 -11.37,-1.148 -16.87,-2.09 -6.09,-1.047 -17.83,-6.867 -27.9,-7.531 -12.69,-0.836 -19.44,-4.773 -32.97,-5.231 -12.34,-0.41 -26.2,-1.21 -38.2,-0.726 -11.75,0.476 -23.64,3.976 -35.02,5.269 -12.68,1.442 -25.11,2.196 -38.07,2.418 -26.02,0.446 -47.61,-0.894 -69.54,-8.722 l -26.74,-12.61 c -24.35,-15.199 -34.8,-44.566 -51.25,-67.183 -10.97,-15.094 -25.57,-24.274 -45.49,-33.524 -19.75,-9.168 -34.88,-17.398 -49.64,-29.179 -7.96,-6.352 -13.78,-13.008 -20.53,-19.047 -4.36,-3.903 -14.58,-16.153 -14.26,-25.313" /></g></g></svg>