<?xml version="1.0" encoding="utf-8"?>
<!-- Generator: Adobe Adobe Illustrator 24.2.0, SVG Export Plug-In . SVG Version: 6.00 Build 0)  -->
<svg version="1.1" id="_x2014_ÎÓÈ_x5F_1" xmlns="http://www.w3.org/2000/svg" xmlns:xlink="http://www.w3.org/1999/xlink"
	 x="0px" y="0px" width="1006.23px" height="406.19px" viewBox="0 0 1006.23 406.19"
	 style="enable-background:new 0 0 1006.23 406.19;" xml:space="preserve">
<style type="text/css">
	.st0{fill:#FFFFFF;}
	.st1{fill:#89CFF0;stroke:#030202;stroke-width:2;stroke-miterlimit:10;}
	.st2{fill:#EBCA96;stroke:#000000;stroke-width:2;stroke-linejoin:round;stroke-miterlimit:10;}
</style>
<rect x="321.11" y="11.1" class="st0" width="364" height="328"/>
<g>
	<path class="st1" d="M607.27,226.59c0.57-9.66,2.95-19.52,1.73-29.23c-0.11-2.96-2.08-5.2-3.52-7.57
		c-0.85,5.22,0.79,10.92,0.27,16.37c-0.61,6.36-2.15,12.77-4.9,18.54c-0.23-3.57-0.61-7.18-1.34-10.71
		c-1.82,5.66-2.33,11.71-3.74,17.53c-1.57,6.47-3.44,12.97-3.45,19.71c-2.14-4.21-3.18-8.03-3.62-12.28
		c-3.42,6.01-7.37,11.67-11.94,16.83c3.47,12.96,12.75,13.68,23.53,18.59c11.61,5.29,22.79,11.91,32.24,20.69
		c5.72,9.08,2.49,22.01,8.84,30.2c4.96,5.13,18.37,11.3,17.99-1.28c-0.12-3.96-2.36-8.37-3.31-12.2c-1.2-4.88-2.64-9.66-4.39-14.36
		c-3.22-8.62-5.37-19.3-11.01-26.58c-6.51-8.41-15.13-15.84-22.77-23.15C611.32,241.4,606.69,236.21,607.27,226.59z M619.55,249.28
		c-0.17-0.16-0.47-0.45-0.93-0.89C619,248.75,619.35,249.08,619.55,249.28z M616.81,246.65c0.16,0.15,0.38,0.36,0.61,0.58
		C617.15,246.98,616.95,246.78,616.81,246.65z"/>
	<path class="st1" d="M499.01,329.86c3.7,2.4,6.4,4.98,7.35,5.81c0.47,0.77,1.42,0.54,2.54,2.79h-24.16
		c-5.19-5.68-12.48-10.49-17.97-15.23c-5.51-10.53-3.29-23.3-9.99-33.52c-6.39-9.73-18-14.08-28.17-18.4
		c3.53-3.48,7.56-6.08,13.31-6c14.4,0.73,28.71,7.45,42.39,11.58c7.15,11.18-1.37,27.06,3.72,39.43c0.96,1.6,4.19,6.96,4.91,7.81
		c1.46,1.72,1.89,2.41,2.71,3.16c1.26,1.13,2.6,2.15,4.06,3.01"/>
	<g>
		<path class="st1" d="M549.78,308.44c1.09-0.86,2.1-1.72,2.81-2.62c-5.52-19.4-33.17-17.32-43.66-31.5c-0.01,0-0.03,0-0.04,0
			c0.07-1.13,0.16-2.28,0.3-3.43c0.49-9.57,6.45-17.98,10.93-27.15c-3.43,3.01-6.85,6.36-9.48,10.34
			c-6.59,4.96-12.82,11.62-21.83,10.3c4.81,2.82,9.62,8.87,15.45,8.09c-0.01,0.06-0.01,0.11-0.02,0.17
			c-12.75,1.68-24.94-5.1-36.91-8.48c-9.72-2.75-19.69-4.33-29.55-6.33c4.18-1.9,9.34-4.16,14.5-5.67
			c-9.08-1.24-21.6-1.47-27.03,6.03c-0.02-12.66-2.68-25.89-9.5-36.61c4.59,14.72,6.2,31.62,4.01,46.91
			c-1.28,2.75-2.12,5.71-2.49,8.74c-3.35,9.43-11.55,15.34-20.06,19.49c-11,5.36-21.15,9.59-31.41,16.61
			c-1.86,1.91,0.53,6.04,2.35,10.63c0.05,0.13,0.04,0.11,0.01,0.01c1.91,5.57,5.35,10.82,10.03,14.5h-4.56h-20.59
			c-2.35-9.84-5.61-18.5-9.55-27.8c-5.63-8.97,2.31-12.67,8.15-17.99c8.19-8.39,5.29-20.62,5.96-31.08
			c0.86-13.3,1.89-26.31,1.89-39.68c-1.71,4.38-3.02,8.77-4.01,13.26c-0.82-15.96-0.66-31.59,6.49-46.24
			c-0.12-1.54-0.92-2.91-2.88-4.05c-11.41-7.25-24.35-17.83-27.1-32.04c4.82,7.15,11.14,12.93,19.64,15.99
			c-7.81-8.01-16.58-17.01-19.85-28.37c1.47-9.51,6.45-16.76,13.39-22.95c1.45-0.95,3.13-1.69,5.14-2.13
			c-1.01,13.74,0.94,28.24,11.13,38.38c9.73,9.67,20.22,11.54,32.45,6.25c12.53-5.42,27.1-7.41,40.58-5.45
			c7.1,1.03,13.71,3.94,20.81,4.98c7.15,1.05,14.47,0.98,21.65,0.29c19.22-0.66,39.04-4.33,54.95-17.38
			c-7.74,3.97-15.96,6.45-24.36,8.51c9.93-4.63,20.14-10.03,28.21-17.68c4.28-4.06,7.39-8.85,10.82-13.62c2.16-3,6.63-5.76,6.63-9
			c7.02,4.32,12.63,18.52,22.29,16.36c0.96-0.07,1.92-0.22,2.89-0.47c7.28-3.73,12.85-9.23,11.89-18.12
			c0.5,6.8-6.37,10.48-9.95,14.15c-1.62,0.9-3.35,1.32-5.19,1.26c-4.5-1.26-8.37-5.23-13.08-10.06c-5.49-6.85-6.24-17.52-7.96-25.93
			c4.04-8.52,16.76-8.95,24.43-7.34c5.15,1.08,8.76,1.28,13.93,0.6c5.73-0.75,9.31,0.26,14.9,1.07c8.21,1.2,15.56-1.43,21.58,5.86
			c2.89,3.49,5.66,7.92,7.57,12.03c1.79,3.86,0.83,10.85,3.61,13.71c7.44,6.78,17.56,9.08,25.35,15.29
			c1.31,1.04,1.83,2.39,1.55,4.02c-3.45,8.57-5.23,18.23-13.13,23.98c-6.01,3.88-13.2,4.22-20.06,3.41
			c-14.97-5.75-29.57-1.5-29.58,15.54c-2.74,12.35,2.27,24.78-3.64,36.9c-0.53-4.08-1.39-8.3-2.61-12.21
			c-3.31,12.18-3.89,24.84-7.82,36.93c-0.22-4.09-0.44-8.17-0.64-12.26c-6.77,15.76-16.4,30.37-29.6,41.2l0.02,0.14
			c-2.02,1.47-4.11,2.86-6.23,4.18c4.89,8.7,15.26,12.09,21.33,19.69c8.54,10.71-1.33,22.72-8.59,31.08l-4.18,4.64
			c-2.38,2.57-6.12,4.29-9.7,4.75c-1.17,0.15-2.37,0.02-3.44-0.51c-0.93-0.46-1.05-0.82-0.78-0.48c-2.54-2.17-3.96-4.64-5-7.39
			C542.81,315.79,544.43,312.6,549.78,308.44"/>
	</g>
</g>
<g>
	<path class="st2" d="M417.59,338.46c-1.85-2.32-8.7-11.12-8.42-14.35c-0.45-4.14,5.64-10.18,7.37-13.97
		c2.12-4.65,1.15-10.13,3.11-14.48c-2.01-0.29-3.93-0.7-5.98-0.52c-5.97,0.84-10.79,3.2-14.97,7.43c-1.09,3.8-3.08,7.29-4.97,10.81
		c1.62-1.64,3.1-3.4,4.38-5.31c-1.17,6-6.96,9.12-8.4,14.64c-0.59,4.26,10.69,13.38,13.57,15.76h14.49"/>
	<path class="st2" d="M362.64,338.46h-9.86c-2.55-9.13-7.26-19.85-5.75-29.49c0.72-4.56,4.49-7.34,6.88-11.1
		c2.85-4.48,5.01-9.41,6.74-14.43c6.37-18.49,8.38-37.37,20.37-53.46c-2.87,2.5-5.42,5.22-7.74,8.1
		c-10.45-12.92-22.65-24.56-29.52-40.09c-5.1-11.51-6.17-35.89,12.25-35.04c5.57-0.02,10.77,3.29,11.79,9.17
		c0.62,11.69-10.36,1.48-14.21,5.04c-4.48,4.88-1.96,11.77,0.85,16.64c5.44,10.55,14.84,23.27,26.51,26.71
		c10.28,1.79,20.24-4.72,30.77-3.71c10.58,1.02,20.39,5.91,30.79,7.99c-5.37,0-10.66-0.76-16.15-0.27c6.22,1.6,11.35,4.34,17.94,4
		c6.07-0.31,11.51-1.96,17.18-4.08c9.14-3.42,19.68,1.1,28.37-2.86c-2.22,1.72-4.61,3.27-6.66,5.24
		c16.42-2.62,22.07-24.7,27.32-38.02c1.88-4.77,7.06-13.86,9.79-5.12c1.11,3.56,0.38,6.63,4.72,8.03c4.45,1.43,5.29-2.78,8.68-4.96
		c0.37,2.27-0.27,4.07-0.78,6.3c3.35,0.56,7.09,1.76,9.11,4.78c0.65,2.33,1.24,5.38,3.24,6.92c0.34,0.16,0.68,0.33,1.03,0.51
		c8.5,2.38,1.98,19.81-2.84,22.77c-6.54,2.56-16.38,2.63-20.52,9.42c3.18-1.73,6.49-2.81,9.91-3.59
		c-8.63,7.77-9.94,21.67-10.75,32.66l-0.75-2.7c-1.3,8.76-4.96,17-9.04,24.73c0.74-2.4,1.49-4.8,2.23-7.2
		c-5.3,7.88-11.96,12.55-18.74,18.97c3.88-2.91,8.47-4.36,12.47-6.75c-2.46,2.84-1.32,10.89-1.55,14.6
		c-0.21,3.43-0.39,6.87-0.37,10.3l0.21,5.15c0,0,0.07,2.74,0.41,3.75c0.34,1,10.17,10.38,10.39,10.75
		c0.22,0.38-12.78,0.35-17.03,0.35c-4.17,0-5.44-13.49-5.44-13.49l-0.65-5.39c-0.13-1.19-0.26-2.37-0.4-3.53
		c-1.04-8.51-3.58-18.38-0.98-26.71c0.79-1.86,1.99-3.5,3.49-4.83c0.28-0.57-0.56-1.15-0.28-1.72c-7.73,6.34-5.26,20.3-4.66,29.18
		c0.17,2.51,0.35,5.15,0.62,7.82c0,0,1.16,8.51,2.07,11.81s2.72,6.87,2.72,6.87h-12.99l-1.87-8.25l-2.62-9.24
		c-1.08-3.67-2.18-7.33-3.26-10.99c-1.78-5.99-3.86-12.15-3.54-18.49c1.05-4.62,3.4-8.88,5.35-13.28
		c-4.58,3.35-6.67,8.37-7.74,13.72c-9.68,6.24-22.91,5.65-33.69,2.75c3.76-0.11,7.48-0.3,11.2-1.25
		c-10.69-0.69-20.98-2.75-31.72-1.16l0.02,0.01c-3.79,0.16-7.08,1.27-10.42,3.1c6.5-7.04,15.64-10.6,23.37-16.02
		c-6.01,1.83-11.83,4.14-17.28,7.36c-5.72,3.38-10.07,8.8-14.66,13.62c-5.41,5.68-11.32,10.04-18.17,13.75
		c-5.24,2.84-12.88,4.52-16.86,9.19C359.84,325.05,362.36,336.17,362.64,338.46 M512.98,336.71 M545.04,226.24l-1.96,1.44
		C543.78,227.28,544.44,226.8,545.04,226.24z"/>
</g>
</svg>
