<?xml version="1.0" encoding="UTF-8"?>
<svg id="_x2014_ÎÓÈ_x5F_1" xmlns="http://www.w3.org/2000/svg" version="1.1" viewBox="0 0 1006.2 406.2">
  <!-- Generator: Adobe Illustrator 29.0.1, SVG Export Plug-In . SVG Version: 2.1.0 Build 192)  -->
  <defs>
    <style>
      .st0 {
        fill: #333;
        font-family: Kefa-Bold, Kefa;
        font-size: 118.1px;
        font-weight: 700;
      }

      .st0, .st1 {
        isolation: isolate;
      }

      .st2 {
        fill: #89cff0;
        stroke: #030202;
        stroke-miterlimit: 10;
      }

      .st2, .st3 {
        stroke-width: .5px;
      }

      .st4 {
        fill: #b7da97;
      }

      .st3 {
        fill: #ebca96;
        stroke: #000;
        stroke-linejoin: round;
      }
    </style>
  </defs>
  <rect class="st4" x="-400.9" y="-124.9" width="364" height="328"/>
  <g>
    <path class="st2" d="M597,144.2c.5-9.2,2.7-18.3,1.6-27.5,0-2.7-2-4.9-3.3-7.1-.7,4.9.7,10.3.2,15.4-.5,6-2,12.1-4.6,17.4-.2-3.3-.5-6.8-1.3-10.1-1.6,5.3-2.2,11-3.5,16.5-1.5,6-3.3,12.3-3.3,18.5-2-4-2.9-7.5-3.5-11.5-3.3,5.7-7,11-11.2,15.9,3.3,12.3,12.1,12.8,22.2,17.6,11,4.9,21.4,11.2,30.4,19.4,5.3,8.6,2.4,20.7,8.2,28.4,4.8,4.8,17.4,10.6,17-1.3,0-3.7-2.2-7.9-3.1-11.5-1.1-4.6-2.6-9.2-4.2-13.6-3.1-8.1-5.1-18.1-10.4-25.1-6-7.9-14.3-14.8-21.4-21.8-6.2-5.9-10.6-10.8-10.1-20l.2.4ZM608.5,165.6s-.4-.4-.9-.9c.4.4.7.7.9.9ZM606,163s.4.4.5.5c-.2-.2-.4-.4-.5-.5Z"/>
    <path class="st2" d="M495,241.4c3.5,2.2,6,4.8,7,5.5.4.7,1.3.5,2.4,2.6h-22.7c-4.9-5.3-11.7-9.9-16.8-14.3-5.1-9.9-3.1-22-9.3-31.5-6-9.2-17-13.2-26.6-17.4,3.3-3.3,7.1-5.7,12.5-5.7,13.6.7,27.1,7,39.9,11,6.8,10.6-1.3,25.5,3.5,37.2.9,1.5,4,6.6,4.6,7.3,1.5,1.6,1.8,2.2,2.6,2.9,1.1,1.1,2.4,2,3.8,2.7"/>
    <path class="st2" d="M542.8,221.2c1.1-.7,2-1.6,2.6-2.4-5.1-18.3-31.3-16.3-41.2-29.7h0c0-1.1,0-2.2.4-3.3.5-9,6-17,10.3-25.6-3.3,2.7-6.4,6-9,9.7-6.2,4.8-12.1,11-20.5,9.7,4.6,2.7,9,8.4,14.5,7.7h0c-12.1,1.6-23.4-4.8-34.8-8.1-9.2-2.6-18.5-4-27.8-6,4-1.8,8.8-3.8,13.7-5.3-8.6-1.1-20.3-1.5-25.5,5.7,0-11.9-2.6-24.4-9-34.4,4.4,13.9,5.9,29.8,3.8,44.1-1.3,2.6-2,5.3-2.4,8.2-3.1,9-10.8,14.5-18.9,18.3-10.4,5.1-20,9-29.7,15.6-1.8,1.8.5,5.7,2.2,10.1h0c1.8,5.3,5.1,10.3,9.5,13.7h-23.6c-2.2-9.3-5.3-17.4-9-26.2-5.3-8.4,2.2-11.9,7.7-17,7.7-7.9,4.9-19.4,5.7-29.3.7-12.5,1.8-24.7,1.8-37.4-1.6,4.2-2.9,8.2-3.8,12.5-.7-15-.5-29.8,6-43.6,0-1.5-.9-2.7-2.7-3.8-10.8-6.8-22.9-16.8-25.5-30.2,4.6,6.8,10.4,12.3,18.5,15-7.3-7.5-15.6-16.1-18.7-26.7,1.5-9,6-15.7,12.6-21.6,1.3-.9,2.9-1.6,4.8-2-.9,13,.9,26.6,10.4,36.1,9.2,9.2,19,10.8,30.6,5.9,11.7-5.1,25.5-7,38.3-5.1,6.8.9,13,3.7,19.6,4.8,6.8.9,13.6.9,20.3.2,18.1-.5,36.8-4,51.8-16.3-7.3,3.7-15,6-22.9,8.1,9.3-4.4,19-9.5,26.6-16.7,4-3.8,7-8.4,10.3-12.8,2-2.7,6.2-5.5,6.2-8.4,6.6,4,11.9,17.4,21.1,15.4.9,0,1.8-.2,2.7-.4,6.8-3.5,12.1-8.6,11.2-17,.5,6.4-6,9.9-9.3,13.4-1.5.9-3.1,1.3-4.9,1.1-4.2-1.1-7.9-4.9-12.3-9.5-5.1-6.4-5.9-16.5-7.5-24.4,3.8-8.1,15.7-8.4,23.1-7,4.8,1.1,8.2,1.3,13.2.5,5.3-.7,8.8.2,14.1,1.1,7.7,1.1,14.6-1.3,20.3,5.5,2.7,3.3,5.3,7.5,7.1,11.4,1.6,3.7.7,10.3,3.5,13,7,6.4,16.5,8.6,23.8,14.5,1.3.9,1.6,2.2,1.5,3.8-3.3,8.1-4.9,17.2-12.5,22.5-5.7,3.7-12.5,4-18.9,3.3-14.1-5.5-27.8-1.5-27.8,14.6-2.6,11.7,2.2,23.3-3.5,34.8-.5-3.8-1.3-7.9-2.4-11.5-3.1,11.5-3.7,23.4-7.3,34.8-.2-3.8-.4-7.7-.5-11.5-6.4,14.8-15.4,28.6-27.8,38.8h0c-1.8,1.5-3.8,2.7-5.9,4,4.6,8.2,14.5,11.4,20.1,18.5,8.1,10.1-1.3,21.4-8.1,29.3l-4,4.4c-2.2,2.4-5.7,4-9.2,4.4-1.1,0-2.2,0-3.3-.5-.9-.4-.9-.7-.7-.4-2.4-2-3.7-4.4-4.8-7-.5-6.6,1.1-9.5,6-13.4"/>
  </g>
  <g>
    <path class="st3" d="M428.8,249.4c-2.1-2.6-9.4-12-9.1-15.5-.5-4.5,6.1-11,8-15.2,2.2-5.1,1.3-11,3.3-15.6-2.2-.3-4.3-.8-6.5-.6-6.4,1-11.6,3.5-16.1,8-1.1,4.1-3.3,7.8-5.4,11.6,1.8-1.8,3.3-3.7,4.8-5.7-1.3,6.5-7.5,9.9-9.1,15.8-.6,4.6,11.5,14.5,14.7,17.1h15.6"/>
    <path class="st3" d="M369.5,249.4h-10.7c-2.7-9.9-7.8-21.5-6.2-31.9.8-4.9,4.8-8,7.5-12,3-4.8,5.4-10.2,7.3-15.6,6.9-19.9,9.1-40.3,22-57.7-3,2.7-5.9,5.6-8.3,8.8-11.3-14-24.6-26.5-31.9-43.4-5.6-12.4-6.7-38.8,13.2-38,6.1,0,11.6,3.5,12.8,9.9.6,12.6-11.2,1.6-15.3,5.4-4.8,5.3-2.1,12.8,1,18,5.9,11.5,16.1,25.2,28.7,28.9,11.2,1.9,21.8-5.1,33.3-4,11.5,1.1,22,6.4,33.3,8.6-5.7,0-11.5-.8-17.4-.3,6.7,1.8,12.3,4.6,19.5,4.3,6.5-.3,12.4-2.1,18.5-4.5,9.9-3.7,21.2,1.1,30.6-3-2.4,1.9-4.9,3.5-7.2,5.7,17.7-2.9,23.9-26.6,29.5-41.1,2.1-5.1,7.7-15,10.5-5.6,1.3,3.8.5,7.2,5.1,8.6,4.8,1.6,5.7-3,9.4-5.4.5,2.4-.3,4.5-.8,6.9,3.7.6,7.7,1.9,9.9,5.1.6,2.6,1.3,5.7,3.5,7.5.3.2.8.3,1.1.5,9.2,2.6,2.1,21.4-3,24.6-7,2.7-17.7,2.9-22.2,10.2,3.5-1.9,7-3,10.7-3.8-9.4,8.5-10.7,23.4-11.6,35.2l-.8-2.9c-1.4,9.4-5.4,18.3-9.7,26.8.8-2.6,1.6-5.3,2.4-7.8-5.7,8.5-12.9,13.6-20.3,20.6,4.1-3.2,9.1-4.8,13.6-7.3-2.7,3-1.4,11.8-1.8,15.8-.2,3.7-.5,7.5-.5,11.2v5.6c.2,0,.3,3,.6,4,.3,1.1,11,11.2,11.2,11.6s-13.9.3-18.3.3-5.9-14.5-5.9-14.5l-.6-5.9c0-1.3-.3-2.6-.5-3.8-1.1-9.2-3.8-19.9-1.1-28.9.8-2.1,2.1-3.8,3.8-5.3.3-.6-.6-1.3-.3-1.9-8.3,6.9-5.7,22-5.1,31.6.2,2.7.3,5.6.6,8.5,0,0,1.3,9.2,2.2,12.8s2.9,7.5,2.9,7.5h-14l-2.1-8.9-2.9-10c-1.1-4-2.4-8-3.5-11.8-1.9-6.5-4.1-13.1-3.8-19.9,1.1-4.9,3.7-9.6,5.7-14.4-4.9,3.7-7.2,9.1-8.3,14.8-10.5,6.7-24.7,6.1-36.4,3,4,0,8.1-.3,12.1-1.3-11.5-.8-22.6-3-34.3-1.3h0c-4.1.2-7.7,1.4-11.3,3.3,7-7.7,16.9-11.5,25.2-17.4-6.5,1.9-12.8,4.5-18.7,8-6.2,3.7-10.8,9.6-15.8,14.7-5.9,6.2-12.3,10.8-19.6,14.8-5.7,3-13.9,4.9-18.2,9.9-2.2,1.9.5,13.9.8,16.4M566.6,128.1l-2.1,1.6c.8-.5,1.4-1,2.1-1.6Z"/>
  </g>
  <g class="st1">
    <text class="st0" transform="translate(93.7 361.4)"><tspan x="0" y="0">Shelter Partner</tspan></text>
  </g>
</svg>