<?xml version="1.0" encoding="UTF-8"?>
<svg id="_x2014_ÎÓÈ_x5F_1" xmlns="http://www.w3.org/2000/svg" version="1.1" viewBox="0 0 1006.2 406.2">
  <!-- Generator: Adobe Illustrator 29.0.1, SVG Export Plug-In . SVG Version: 2.1.0 Build 192)  -->
  <defs>
    <style>
      .st0 {
        fill: #333;
        font-family: Noteworthy-Bold, Noteworthy;
        font-size: 118.1px;
        font-weight: 700;
      }

      .st1 {
        fill: #ebca96;
        stroke: #000;
        stroke-linejoin: round;
      }

      .st2 {
        fill: #fff;
      }

      .st3 {
        fill: #89cff0;
        stroke: #030202;
        stroke-miterlimit: 10;
      }
    </style>
  </defs>
  <rect class="st2" x="321.1" y="11.1" width="364" height="328"/>
  <g>
    <path class="st3" d="M740.6,184.1c.3-5,1.5-10,.9-15,0-1.5-1.1-2.7-1.8-3.9-.4,2.7.4,5.6.1,8.4-.3,3.3-1.1,6.6-2.5,9.5-.1-1.8-.3-3.7-.7-5.5-.9,2.9-1.2,6-1.9,9-.8,3.3-1.8,6.7-1.8,10.1-1.1-2.2-1.6-4.1-1.9-6.3-1.8,3.1-3.8,6-6.1,8.7,1.8,6.7,6.6,7,12.1,9.6,6,2.7,11.7,6.1,16.6,10.6,2.9,4.7,1.3,11.3,4.5,15.5,2.6,2.6,9.5,5.8,9.3-.7,0-2-1.2-4.3-1.7-6.3-.6-2.5-1.4-5-2.3-7.4-1.7-4.4-2.8-9.9-5.7-13.7-3.3-4.3-7.8-8.1-11.7-11.9-3.4-3.2-5.8-5.9-5.5-10.9ZM746.9,195.8c0,0-.2-.2-.5-.5.2.2.4.4.5.5ZM745.5,194.4c0,0,.2.2.3.3-.1-.1-.2-.2-.3-.3Z"/>
    <path class="st3" d="M684.9,237.2c1.9,1.2,3.3,2.6,3.8,3,.2.4.7.3,1.3,1.4h-12.4c-2.7-2.9-6.4-5.4-9.2-7.8-2.8-5.4-1.7-12-5.1-17.2-3.3-5-9.3-7.2-14.5-9.5,1.8-1.8,3.9-3.1,6.8-3.1,7.4.4,14.8,3.8,21.8,6,3.7,5.8-.7,13.9,1.9,20.3.5.8,2.2,3.6,2.5,4,.8.9,1,1.2,1.4,1.6.6.6,1.3,1.1,2.1,1.5"/>
    <path class="st3" d="M711,226.2c.6-.4,1.1-.9,1.4-1.3-2.8-10-17.1-8.9-22.5-16.2h0c0-.6,0-1.2.2-1.8.3-4.9,3.3-9.3,5.6-14-1.8,1.5-3.5,3.3-4.9,5.3-3.4,2.6-6.6,6-11.2,5.3,2.5,1.5,4.9,4.6,7.9,4.2,0,0,0,0,0,0-6.6.9-12.8-2.6-19-4.4-5-1.4-10.1-2.2-15.2-3.3,2.2-1,4.8-2.1,7.5-2.9-4.7-.6-11.1-.8-13.9,3.1,0-6.5-1.4-13.3-4.9-18.8,2.4,7.6,3.2,16.3,2.1,24.1-.7,1.4-1.1,2.9-1.3,4.5-1.7,4.9-5.9,7.9-10.3,10-5.7,2.8-10.9,4.9-16.2,8.5-1,1,.3,3.1,1.2,5.5,0,0,0,0,0,0,1,2.9,2.8,5.6,5.2,7.5h-12.9c-1.2-5.1-2.9-9.5-4.9-14.3-2.9-4.6,1.2-6.5,4.2-9.3,4.2-4.3,2.7-10.6,3.1-16,.4-6.8,1-13.5,1-20.4-.9,2.3-1.6,4.5-2.1,6.8-.4-8.2-.3-16.3,3.3-23.8,0-.8-.5-1.5-1.5-2.1-5.9-3.7-12.5-9.2-13.9-16.5,2.5,3.7,5.7,6.7,10.1,8.2-4-4.1-8.5-8.8-10.2-14.6.8-4.9,3.3-8.6,6.9-11.8.7-.5,1.6-.9,2.6-1.1-.5,7.1.5,14.5,5.7,19.7,5,5,10.4,5.9,16.7,3.2,6.4-2.8,13.9-3.8,20.9-2.8,3.7.5,7.1,2,10.7,2.6,3.7.5,7.4.5,11.1.1,9.9-.3,20.1-2.2,28.3-8.9-4,2-8.2,3.3-12.5,4.4,5.1-2.4,10.4-5.2,14.5-9.1,2.2-2.1,3.8-4.6,5.6-7,1.1-1.5,3.4-3,3.4-4.6,3.6,2.2,6.5,9.5,11.5,8.4.5,0,1-.1,1.5-.2,3.7-1.9,6.6-4.7,6.1-9.3.3,3.5-3.3,5.4-5.1,7.3-.8.5-1.7.7-2.7.6-2.3-.6-4.3-2.7-6.7-5.2-2.8-3.5-3.2-9-4.1-13.3,2.1-4.4,8.6-4.6,12.6-3.8,2.6.6,4.5.7,7.2.3,2.9-.4,4.8.1,7.7.6,4.2.6,8-.7,11.1,3,1.5,1.8,2.9,4.1,3.9,6.2.9,2,.4,5.6,1.9,7.1,3.8,3.5,9,4.7,13,7.9.7.5.9,1.2.8,2.1-1.8,4.4-2.7,9.4-6.8,12.3-3.1,2-6.8,2.2-10.3,1.8-7.7-3-15.2-.8-15.2,8-1.4,6.4,1.2,12.7-1.9,19-.3-2.1-.7-4.3-1.3-6.3-1.7,6.3-2,12.8-4,19-.1-2.1-.2-4.2-.3-6.3-3.5,8.1-8.4,15.6-15.2,21.2h0c-1,.8-2.1,1.5-3.2,2.2,2.5,4.5,7.9,6.2,11,10.1,4.4,5.5-.7,11.7-4.4,16l-2.2,2.4c-1.2,1.3-3.1,2.2-5,2.4-.6,0-1.2,0-1.8-.3-.5-.2-.5-.4-.4-.2-1.3-1.1-2-2.4-2.6-3.8-.3-3.6.6-5.2,3.3-7.3"/>
  </g>
  <g>
    <path class="st1" d="M340.2,239.1c1.3-1.6,5.9-7.5,5.7-9.7.3-2.8-3.8-6.9-5-9.5-1.4-3.2-.8-6.9-2.1-9.8,1.4-.2,2.7-.5,4.1-.4,4,.6,7.3,2.2,10.1,5,.7,2.6,2.1,4.9,3.4,7.3-1.1-1.1-2.1-2.3-3-3.6.8,4.1,4.7,6.2,5.7,9.9.4,2.9-7.2,9.1-9.2,10.7h-9.8"/>
    <path class="st1" d="M377.4,239.1h6.7c1.7-6.2,4.9-13.5,3.9-20-.5-3.1-3-5-4.7-7.5-1.9-3-3.4-6.4-4.6-9.8-4.3-12.5-5.7-25.3-13.8-36.2,1.9,1.7,3.7,3.5,5.2,5.5,7.1-8.8,15.4-16.6,20-27.2,3.5-7.8,4.2-24.3-8.3-23.8-3.8,0-7.3,2.2-8,6.2-.4,7.9,7,1,9.6,3.4,3,3.3,1.3,8-.6,11.3-3.7,7.2-10.1,15.8-18,18.1-7,1.2-13.7-3.2-20.9-2.5-7.2.7-13.8,4-20.9,5.4,3.6,0,7.2-.5,10.9-.2-4.2,1.1-7.7,2.9-12.2,2.7-4.1-.2-7.8-1.3-11.6-2.8-6.2-2.3-13.3.7-19.2-1.9,1.5,1.2,3.1,2.2,4.5,3.6-11.1-1.8-15-16.7-18.5-25.8-1.3-3.2-4.8-9.4-6.6-3.5-.8,2.4-.3,4.5-3.2,5.4-3,1-3.6-1.9-5.9-3.4-.3,1.5.2,2.8.5,4.3-2.3.4-4.8,1.2-6.2,3.2-.4,1.6-.8,3.6-2.2,4.7-.2.1-.5.2-.7.3-5.8,1.6-1.3,13.4,1.9,15.4,4.4,1.7,11.1,1.8,13.9,6.4-2.2-1.2-4.4-1.9-6.7-2.4,5.9,5.3,6.7,14.7,7.3,22.1l.5-1.8c.9,5.9,3.4,11.5,6.1,16.8-.5-1.6-1-3.3-1.5-4.9,3.6,5.3,8.1,8.5,12.7,12.9-2.6-2-5.7-3-8.5-4.6,1.7,1.9.9,7.4,1.1,9.9.1,2.3.3,4.7.3,7v3.5c-.1,0-.2,1.9-.4,2.5-.2.7-6.9,7-7,7.3-.1.3,8.7.2,11.5.2s3.7-9.1,3.7-9.1l.4-3.7c0-.8.2-1.6.3-2.4.7-5.8,2.4-12.5.7-18.1-.5-1.3-1.3-2.4-2.4-3.3-.2-.4.4-.8.2-1.2,5.2,4.3,3.6,13.8,3.2,19.8-.1,1.7-.2,3.5-.4,5.3,0,0-.8,5.8-1.4,8s-1.8,4.7-1.8,4.7h8.8l1.3-5.6,1.8-6.3c.7-2.5,1.5-5,2.2-7.4,1.2-4.1,2.6-8.2,2.4-12.5-.7-3.1-2.3-6-3.6-9,3.1,2.3,4.5,5.7,5.2,9.3,6.6,4.2,15.5,3.8,22.8,1.9-2.5,0-5.1-.2-7.6-.8,7.2-.5,14.2-1.9,21.5-.8h0c2.6.1,4.8.9,7.1,2.1-4.4-4.8-10.6-7.2-15.8-10.9,4.1,1.2,8,2.8,11.7,5,3.9,2.3,6.8,6,9.9,9.2,3.7,3.9,7.7,6.8,12.3,9.3,3.6,1.9,8.7,3.1,11.4,6.2,1.4,1.2-.3,8.7-.5,10.3M253.8,163l1.3,1c-.5-.3-.9-.6-1.3-1Z"/>
  </g>
  <text class="st0" transform="translate(133.8 297.2)"><tspan x="0" y="0">Shelter Partner</tspan></text>
</svg>