<?xml version="1.0" encoding="UTF-8"?>
<svg id="_x2014_ÎÓÈ_x5F_1" xmlns="http://www.w3.org/2000/svg" version="1.1" viewBox="0 0 1006.2 406.2">
  <!-- Generator: Adobe Illustrator 29.0.1, SVG Export Plug-In . SVG Version: 2.1.0 Build 192)  -->
  <defs>
    <style>
      .st0, .st1 {
        fill: #89cff0;
        stroke-miterlimit: 10;
      }

      .st2, .st3 {
        fill: #ebca96;
        stroke-linejoin: round;
      }

      .st4 {
        font-family: CaveatBrush-Regular, 'Caveat Brush';
        font-size: 180.1px;
        isolation: isolate;
      }

      .st4, .st3, .st1 {
        stroke: #000;
        stroke-width: 1.5px;
      }
    </style>
  </defs>
  <g>
    <path class="st1" d="M785.9,151c0-7.2,1.1-14.4-.2-21.6-.1-2.1-1.8-3.7-3-5.4-.3,3.9,1.1,8,1,12,0,4.7-.9,9.6-2.7,13.8-.3-2.6-.7-5.3-1.5-7.8-1,4.2-1.1,8.7-1.9,13.1-.9,4.8-1.9,9.8-1.6,14.6-1.8-3-2.7-5.7-3.3-8.8-2.3,4.6-4.9,9-7.9,13,3.2,9.4,10.1,9.4,18.3,12.6,8.9,3.3,17.3,7.6,24.8,13.6,4.6,6.4,3,16.1,7.9,21.8,4,3.5,14.2,7.4,13.2-1.9-.2-2.9-2.1-6.1-3-8.8-1.1-3.5-2.5-7.1-4-10.4-2.9-6.2-4.9-13.9-9.5-19.1-5.1-5.9-12-10.8-17.9-15.9-5.2-4.3-8.9-7.9-9-15.1l.2.3h0ZM796,167.1s-.3-.3-.8-.7c.3.3.6.5.8.7ZM793.9,165.2s.3.3.4.4c-.2-.1-.3-.3-.4-.4Z"/>
    <path class="st1" d="M711.2,232.4c2.9,1.5,4.9,3.4,5.8,3.9.3.5,1,.3,2,1.9l-17.7,1.2c-4.1-3.9-9.7-7.1-13.9-10.3-4.5-7.5-3.6-17-8.9-24.1-5.2-6.9-14-9.4-21.7-12.2,2.4-2.8,5.2-4.8,9.5-5.1,10.7-.2,21.6,4,31.8,6.5,5.9,7.9.3,20,4.7,28.9.8,1.1,3.5,4.9,4,5.5,1.3,1.2,1.5,1.6,2.2,2.1.9.8,2,1.4,3.1,1.9"/>
    <path class="st1" d="M747.6,214.1c.8-.6,1.5-1.4,1.9-2-5-14-25.3-11.1-33.8-21h0c0-.9-.1-1.7.1-2.6,0-7.1,3.8-13.6,6.7-20.6-2.4,2.3-4.7,5-6.5,8.1-4.6,4.1-8.9,9.2-15.5,8.7,3.7,1.9,7.5,6.1,11.7,5.3h0c-9.4,1.9-18.5-2.5-27.6-4.5-7.3-1.5-14.7-2.2-22.1-3.2,3-1.6,6.7-3.4,10.4-4.9-6.8-.4-15.9-.1-19.6,5.8-.6-9.3-3.3-18.9-8.9-26.4,4.2,10.6,6.2,23,5.3,34.3-.9,2.1-1.3,4.2-1.4,6.5-1.9,7.2-7.7,11.9-13.8,15.3-7.9,4.5-15.2,8.1-22.4,13.8-1.3,1.5.7,4.4,2.3,7.8h0c1.7,4,4.5,7.8,8.1,10.2l-18.5,1.2c-2.2-7.2-5.1-13.3-8.4-20-4.6-6.3,1.1-9.4,5.1-13.7,5.6-6.6,2.8-15.4,2.9-23.2-.1-9.8.1-19.4-.6-29.3-1,3.4-1.8,6.6-2.3,10-1.3-11.7-2-23.3,2.4-34.4,0-1.2-.8-2.1-2.3-2.8-8.8-4.7-18.8-11.9-21.5-22.3,4,5.1,8.8,9.1,15.3,10.8-6.1-5.5-13-11.8-16-19.9.7-7.1,3.9-12.6,8.7-17.6,1-.8,2.2-1.4,3.6-1.8,0,10.2,2.1,20.7,10,27.7,7.7,6.7,15.4,7.4,24.2,3,8.9-4.6,19.6-6.8,29.7-6,5.4.3,10.4,2.2,15.6,2.7,5.4.3,10.7,0,15.9-.9,14.1-1.3,28.6-5.1,39.6-15.5-5.5,3.3-11.4,5.5-17.5,7.5,7-3.9,14.4-8.4,19.9-14.5,2.9-3.2,5-6.9,7.4-10.6,1.4-2.2,4.6-4.6,4.4-6.9,5.4,2.8,10.2,13,17.3,10.9.7,0,1.4-.3,2.1-.5,5.1-3.1,9-7.4,7.9-13.9.7,5-4.2,8.1-6.6,11-1.1.8-2.4,1.2-3.8,1.1-3.3-.6-6.4-3.4-10.1-6.8-4.3-4.7-5.5-12.6-7.2-18.7,2.5-6.5,11.8-7.4,17.7-6.7,3.8.6,6.5.6,10.3-.3,4.1-.8,6.9-.3,11.1.1,6.1.5,11.3-1.8,16.2,3.2,2.3,2.4,4.5,5.6,6.2,8.5,1.4,2.8,1.1,8,3.4,10,5.8,4.6,13.4,5.9,19.4,10.1,1.1.6,1.4,1.6,1.4,2.9-2.2,6.5-2.9,13.7-8.6,18.2-4.3,3.2-9.6,3.8-14.6,3.6-11.3-3.6-21.8.3-21,12.9-1.4,9.3,2.9,18.1-.9,27.4-.6-2.9-1.4-6.1-2.5-8.9-1.8,9.2-1.7,18.5-3.9,27.6-.4-3-.7-6-1-9-4.2,11.9-10.5,23.2-19.7,31.8h0c-1.3,1.3-2.8,2.3-4.4,3.4,4,6.2,11.9,8.1,16.7,13.4,6.9,7.5.1,16.8-4.8,23.3l-2.9,3.7c-1.6,2-4.2,3.4-7,3.9-.9,0-1.7.1-2.6-.2-.7-.3-.7-.5-.6-.3-2-1.4-3.1-3.2-4.1-5.2-.7-5.1.4-7.5,4-10.8"/>
  </g>
  <g>
    <path class="st3" d="M277.1,237.2c1.9-2.2,8.5-10.2,8.3-13.3.5-3.9-5.1-9.7-6.6-13.4-1.8-4.5-.9-9.6-2.5-13.7,1.9-.2,3.8-.6,5.7-.4,5.6,1,10,3.3,13.8,7.3.9,3.6,2.7,6.9,4.4,10.2-1.5-1.6-2.8-3.3-4-5.1,1,5.7,6.3,8.8,7.6,14,.4,4-10.3,12.4-13.2,14.6l-13.6-.4"/>
    <path class="st3" d="M328.7,238.6l9.3.2c2.6-8.6,7.3-18.5,6.1-27.6-.6-4.3-4-7.1-6.3-10.6-2.5-4.2-4.5-9-6-13.8-5.5-17.5-7-35.3-17.8-50.8,2.6,2.4,5,5,7,7.9,10.2-11.9,22-22.5,28.8-37.1,5.2-10.7,6.7-33.6-10.6-33.4-5.3-.1-10.2,2.8-11.4,8.3-.8,11,9.7,1.7,13.2,5.1,4.1,4.7,1.5,11.2-1.3,15.7-5.4,9.9-14.6,21.6-25.7,24.5-9.8,1.4-18.9-4.9-28.9-4.3-10,.7-19.3,5.1-29.2,6.7,5,.1,10-.4,15.2.1-5.9,1.4-10.8,3.7-17.1,3.3-5.7-.4-10.8-2.1-16-4.3-8.5-3.5-18.5.5-26.6-3.3,2,1.7,4.2,3.2,6.1,5.1-15.3-2.9-20.2-23.7-24.7-36.5-1.7-4.5-6.4-13.2-9-5.1-1.2,3.3-.6,6.3-4.6,7.4-4.2,1.3-4.9-2.7-8.1-4.9-.5,2.1.2,3.9.5,6-3.2.4-6.7,1.5-8.7,4.2-.6,2.3-1.3,4.9-3.2,6.5-.3.2-.7.2-1,.4-8.1,2.1-2.3,18.6,2,21.5,6,2.5,15.3,2.9,19.1,9.4-3-1.7-6-2.8-9.2-3.6,8,7.6,8.8,20.6,9.3,30.9l.8-2.5c1,8.2,4.3,16.1,7.8,23.6-.6-2.3-1.3-4.7-1.9-6.8,4.8,7.5,10.9,12.1,17.2,18.4-3.5-2.9-7.8-4.4-11.7-6.7,2.3,2.7.9,10.3,1.2,13.8,0,3.2.3,6.5.2,9.8v4.9c-.3,0-.5,2.6-.7,3.5-.3,1-9.8,9.5-10,9.8s12.1.6,15.9.7,5.5-12.5,5.5-12.5l.7-5.1c0-1.1.3-2.3.5-3.3,1.2-8,3.8-17.2,1.6-25.1-.6-1.8-1.7-3.4-3.2-4.7-.2-.5.6-1.1.3-1.6,7.1,6.2,4.5,19.3,3.7,27.6-.2,2.3-.4,4.9-.7,7.4,0,0-1.3,8-2.2,11.1-.9,3.1-2.7,6.5-2.7,6.5l12.2.3,2-7.7,2.8-8.6c1.1-3.5,2.3-6.9,3.3-10.2,1.8-5.6,3.9-11.3,3.8-17.2-.8-4.3-3-8.4-4.6-12.7,4.2,3.3,6.1,8.1,6.9,13.1,9,6.1,21.4,5.9,31.6,3.5-3.5,0-7-.4-10.5-1.4,10-.4,19.8-2.1,29.9-.3h0c3.6.3,6.7,1.4,9.8,3.1-5.9-6.9-14.5-10.4-21.5-15.7,5.6,1.8,11,4.2,16.1,7.4,5.3,3.4,9.2,8.6,13.4,13.2,5,5.5,10.5,9.7,16.7,13.3,4.9,2.7,12,4.6,15.6,9,1.9,1.7-.8,12.1-1.1,14.3M159.8,128.4l1.8,1.4c-.7-.5-1.2-.9-1.8-1.4Z"/>
  </g>
  <text class="st4" transform="translate(5 308.3)"><tspan class="st0" x="0" y="0">Shelter</tspan><tspan class="st2" x="459.6" y="0" xml:space="preserve"> Partner</tspan></text>
</svg>