<?xml version="1.0" encoding="utf-8"?>
<!-- Generator: Adobe Adobe Illustrator 24.2.0, SVG Export Plug-In . SVG Version: 6.00 Build 0)  -->
<svg version="1.1" id="Layer_1" xmlns="http://www.w3.org/2000/svg" xmlns:xlink="http://www.w3.org/1999/xlink" x="0px" y="0px"
	 width="360px" height="360px" viewBox="0 0 360 360" style="enable-background:new 0 0 360 360;" xml:space="preserve">
<style type="text/css">
	.st0{fill:#FFFFFF;}
	.st1{fill:#7DC0EA;}
	.st2{fill:#F6C884;}
</style>
<rect x="32.2" y="29.8" class="st0" width="283.8" height="282.4"/>
<g id="Layer_1_2_">
	<g>
		<path d="M170,252.4c2.7-11.1,8.9-19.1,20.5-21.5c8.2-1.7,14.2-5.3,17.7-13.3c3.2-7.3,13.4-11.5,21-9.7c8,2,13.3,8.8,12.9,17.9
			c-0.4,8.2,2.7,14.4,8.6,19.8c3,2.7,5.8,5.7,8.2,9c4.9,6.7,4.8,14,1.3,21.2c-3.4,7-7.6,9.2-15.2,7.4c-4.9-1.2-9.9-2.9-14.1-5.6
			c-11.3-7.1-23-9.8-36-5.6c-6.6,2.1-13.3,1.1-19.3-2.1c-5.7-3.1-6.3-8.8-6.1-14.6C169.6,254.4,169.9,253.4,170,252.4z"/>
		<path d="M228.7,183.9c-0.6,3.4-1,6.8-1.8,10.1c-2.7,10.6-13.9,12.3-20.7,10c-5.1-1.8-6.7-6.4-7.3-11.2c-1.6-12.5,8-26.5,20.2-30.3
			c6.2-1.9,11,1.4,11.3,7.8c0.1,2.3-0.1,4.5-0.4,6.8C229.7,179.4,229.2,181.6,228.7,183.9L228.7,183.9z"/>
		<path d="M237.2,188.2c0.1-0.5,0.1-1,0.3-1.5c0.3-1.2,0.8-3.1,1.1-4.1c0.5-1.7,0.7-1.8,1.2-3.6c0.6-1.8,1.1-2.7,1.8-4.5
			c1.6-4.2,4.8-7.1,9.4-7.3c4.3-0.3,6.9,2.8,9,6.1c5.9,9,6.7,18.7,3.3,28.8c-2.2,6.6-8.5,10.3-15.2,9.3c-6.4-1-11.3-6.5-11.5-13.2
			c0-1.1,0-2.1,0-3.2c0.1-1,0.1-2.8,0.3-4.3C237,189.7,237.1,189.1,237.2,188.2z"/>
		<path d="M166.3,205c0.3-2.2,0.8-4.2,1.6-6.2c1.3-3.4,3.1-6.9,5.4-10.3c2.5-3.6,6.6-5.4,11.1-3.9c4.4,1.4,5.3,5.3,5.8,9.4
			c0.6,4.9,1.3,9.8,2,14.7c1.3,8-1.1,14.3-6.5,16.8c-9.1,4.2-18.2-0.8-19.7-11.1C165.7,211.6,165.9,208.6,166.3,205z"/>
		<path d="M284.9,221.9c0,0.6-0.2,2.3-0.3,2.9c-1.1,8.8-6.1,15.4-15.3,17.8c-7.7,2.1-15.4-4.3-14.8-12.3c0.1-0.8,0.1-1.5,0.4-2.2
			c3.7-9.5,9.9-17.1,18.2-22.6c4.9-3.2,10.5-0.2,11.3,5.7c0.3,2.2,0.6,4.4,0.7,6.6"/>
	</g>
</g>
<g id="Layer_4_1_">
	<g>
		<path d="M174.8,150.9c-2.2,1.6-5,2.4-7.8,2.3c-1.7-0.1-3.3-0.1-5-0.1c-1.3,0-3,0.1-3.8,0.9c-10,11.4-23.3,15-37.7,15.6
			c-2.7,0.1-4.7,0.4-6.6,3c-4.3,6-10.9,7-17.9,5.6c-6.4-1.4-11.1-4.9-12.5-11.8c-1.5-7.4,4.3-18,11.2-20.7c3.5-1.4,7.6-2.1,8.3-6.8
			c0.2-1.6,0.1-3.3-0.2-4.8c-2.8-12.7,2.6-23.6,14.4-28.7c4.7-2,9.6-1.9,14.1,0.5c6.3,3.3,11.7,7.9,14.3,14.8
			c1.1,2.8,2.7,3.4,5.3,2.6c2.9-0.9,5.8-1.9,8.7-2.7c8.7-2.6,18.9,1.7,23,9.8c2.6,5.1,1.4,11.7-3.4,16.8
			C178.1,148.5,176.6,149.7,174.8,150.9z"/>
		<path d="M137.7,68.6c2.9,8,2.4,16-0.4,23.9c-1.2,3.4-3.5,5.8-7.5,6c-3.9,0.2-7.4-0.4-9.4-4.3c-3.8-7.7-6.8-15.7-5.7-24.5
			c0.9-6.9,3.6-9.7,10.4-10.5c5.5-0.7,9.7,2.1,12,8C137.4,67.6,137.5,68.1,137.7,68.6z"/>
		<path d="M109.2,94.2c0.9,3.6,0.7,5.1,0.3,6.3c-0.7,2.4-2.4,3.9-3,4.4c-3.3,2.9-7.4,3.3-11.5,1.7c-7.3-2.8-15.4-15.9-14.9-23.7
			c0.3-5.3,3.4-9.7,7.5-11c1.7-0.5,3.4-0.6,5-0.4c3.9,0.6,6.3,3.3,7.7,4.9c1.1,1.2,1.8,2.5,3.2,4.8
			C107.7,88.6,108.9,92.9,109.2,94.2z"/>
		<path d="M95.3,126.4c0.3,0.7,0.6,1.3,0.7,2c0.9,3.6,0.5,7-2.5,9.9c-3.2,3.1-9.8,4.2-13.9,2.1c-7-3.6-11.9-9.1-13.9-16.8
			c-2.4-9.3,3.2-14.8,12.4-12.3C86.3,113.5,91.7,118.9,95.3,126.4z"/>
		<path d="M169,89.2c1.6,7,0.8,12.8,0.1,16c-0.4,1.8-0.6,2.8-1.1,3.8c-1.6,3-4.7,5-8.3,6c-5,1.5-9.4-0.7-11.5-5.6
			c-3.5-8.1-2.8-15.9,2-23.2c1.5-2.2,3.3-4,5.7-4.7c1.8-0.6,3.3-0.4,4.3-0.3c0.8,0.1,3.4,0.4,5.6,1.9c0.6,0.4,1.3,0.9,1.8,1.7
			C167.9,85.5,168.4,86.3,169,89.2z"/>
	</g>
</g>
<g id="Layer_1_1_">
	<g>
		<path class="st1" d="M168.8,250.6c2.7-11.1,8.9-19.1,20.5-21.5c8.2-1.7,14.2-5.3,17.7-13.3c3.2-7.3,13.4-11.5,21-9.7
			c8,2,13.3,8.8,12.9,17.9c-0.4,8.2,2.7,14.4,8.6,19.8c3,2.7,5.8,5.7,8.2,9c4.9,6.7,4.8,14,1.3,21.2c-3.4,7-7.6,9.2-15.2,7.4
			c-4.9-1.2-9.9-2.9-14.1-5.6c-11.3-7.1-23-9.8-36-5.6c-6.6,2.1-13.3,1.1-19.3-2.1c-5.7-3.1-6.3-8.8-6.1-14.6
			C168.3,252.6,168.6,251.6,168.8,250.6z"/>
		<path class="st1" d="M227.5,182.1c-0.6,3.4-1,6.8-1.8,10.1c-2.7,10.6-13.9,12.3-20.7,10c-5.1-1.8-6.7-6.4-7.3-11.2
			c-1.6-12.5,8-26.5,20.2-30.3c6.2-1.9,11,1.4,11.3,7.8c0.1,2.3-0.1,4.5-0.4,6.8C228.4,177.6,227.9,179.9,227.5,182.1L227.5,182.1z"
			/>
		<path class="st1" d="M235.9,186.4c0.1-0.5,0.1-1,0.3-1.5c0.3-1.2,0.8-3.1,1.1-4.1c0.5-1.7,0.7-1.8,1.2-3.6
			c0.6-1.8,1.1-2.7,1.8-4.5c1.6-4.2,4.8-7.1,9.4-7.3c4.3-0.3,6.9,2.8,9,6.1c5.9,9,6.7,18.7,3.3,28.8c-2.2,6.6-8.5,10.3-15.2,9.3
			c-6.4-1-11.3-6.5-11.5-13.2c0-1.1,0-2.1,0-3.2c0.1-1,0.1-2.8,0.3-4.3C235.7,188,235.8,187.3,235.9,186.4z"/>
		<path class="st1" d="M165,203.2c0.3-2.2,0.8-4.2,1.6-6.2c1.3-3.4,3.1-6.9,5.4-10.3c2.5-3.6,6.6-5.4,11.1-3.9
			c4.4,1.4,5.3,5.3,5.8,9.4c0.6,4.9,1.3,9.8,2,14.7c1.3,8-1.1,14.3-6.5,16.8c-9.1,4.2-18.2-0.8-19.7-11.1
			C164.4,209.8,164.6,206.8,165,203.2z"/>
		<path class="st1" d="M283.7,220.2c0,0.6-0.2,2.3-0.3,2.9c-1.1,8.8-6.1,15.4-15.3,17.8c-7.7,2.1-15.4-4.3-14.8-12.3
			c0.1-0.8,0.1-1.5,0.4-2.2c3.7-9.5,9.9-17.1,18.2-22.6c4.9-3.2,10.5-0.2,11.3,5.7c0.3,2.2,0.6,4.4,0.7,6.6"/>
	</g>
</g>
<g id="Layer_4">
	<g>
		<path class="st2" d="M172.9,150c-2.2,1.6-5,2.4-7.8,2.3c-1.7-0.1-3.3-0.1-5-0.1c-1.3,0-3,0.1-3.8,0.9c-10,11.4-23.3,15-37.7,15.6
			c-2.7,0.1-4.7,0.4-6.6,3c-4.3,6-10.9,7-17.9,5.6c-6.4-1.4-11.1-4.9-12.5-11.8c-1.5-7.4,4.3-18,11.2-20.7c3.5-1.4,7.6-2.1,8.3-6.8
			c0.2-1.6,0.1-3.3-0.2-4.8c-2.8-12.7,2.6-23.6,14.4-28.7c4.7-2,9.6-1.9,14.1,0.5c6.3,3.3,11.7,7.9,14.3,14.8
			c1.1,2.8,2.7,3.4,5.3,2.6c2.9-0.9,5.8-1.9,8.7-2.7c8.7-2.6,18.9,1.7,23,9.8c2.6,5.1,1.4,11.7-3.4,16.8
			C176.2,147.6,174.6,148.8,172.9,150z"/>
		<path class="st2" d="M135.7,67.7c2.9,8,2.4,16-0.4,23.9c-1.2,3.4-3.5,5.8-7.5,6c-3.9,0.2-7.4-0.4-9.4-4.3
			c-3.8-7.7-6.8-15.7-5.7-24.5c0.9-6.9,3.6-9.7,10.4-10.5c5.5-0.7,9.7,2.1,12,8C135.4,66.7,135.5,67.2,135.7,67.7z"/>
		<path class="st2" d="M107.2,93.3c0.9,3.6,0.7,5.1,0.3,6.3c-0.7,2.4-2.4,3.9-3,4.4c-3.3,2.9-7.4,3.3-11.5,1.7
			c-7.3-2.8-15.4-15.9-14.9-23.7c0.3-5.3,3.4-9.7,7.5-11c1.7-0.5,3.4-0.6,5-0.4c3.9,0.6,6.3,3.3,7.7,4.9c1.1,1.2,1.8,2.5,3.2,4.8
			C105.8,87.7,106.9,92,107.2,93.3z"/>
		<path class="st2" d="M93.3,125.5c0.3,0.7,0.6,1.3,0.7,2c0.9,3.6,0.5,7-2.5,9.9c-3.2,3.1-9.8,4.2-13.9,2.1
			c-7-3.6-11.9-9.1-13.9-16.8c-2.4-9.3,3.2-14.8,12.4-12.3C84.3,112.6,89.7,117.9,93.3,125.5z"/>
		<path class="st2" d="M167.1,88.3c1.6,7,0.8,12.8,0.1,16c-0.4,1.8-0.6,2.8-1.1,3.8c-1.6,3-4.7,5-8.3,6c-5,1.5-9.4-0.7-11.5-5.6
			c-3.5-8.1-2.8-15.9,2-23.2c1.5-2.2,3.3-4,5.7-4.7c1.8-0.6,3.3-0.4,4.3-0.3c0.8,0.1,3.4,0.4,5.6,1.9c0.6,0.4,1.3,0.9,1.8,1.7
			C166,84.6,166.4,85.4,167.1,88.3z"/>
	</g>
</g>
<g id="Layer_5">
</g>
<g id="Layer_3">
</g>
</svg>
