<?xml version="1.0" encoding="UTF-8"?>
<svg id="Layer_1" xmlns="http://www.w3.org/2000/svg" version="1.1" viewBox="0 0 360 360">
  <!-- Generator: Adobe Illustrator 29.0.1, SVG Export Plug-In . SVG Version: 2.1.0 Build 192)  -->
  <defs>
    <style>
      .st0 {
        fill: #f6c884;
      }

      .st1 {
        font-family: MyriadPro-Regular, 'Myriad Pro';
        font-size: 12px;
      }

      .st2 {
        fill: #7dc0ea;
      }
    </style>
  </defs>
  <g id="Layer_11">
    <g>
      <path d="M170,252.4c2.7-11.1,8.9-19.1,20.5-21.5,8.2-1.7,14.2-5.3,17.7-13.3,3.2-7.3,13.4-11.5,21-9.7,8,2,13.3,8.8,12.9,17.9-.4,8.2,2.7,14.4,8.6,19.8,3,2.7,5.8,5.7,8.2,9,4.9,6.7,4.8,14,1.3,21.2-3.4,7-7.6,9.2-15.2,7.4-4.9-1.2-9.9-2.9-14.1-5.6-11.3-7.1-23-9.8-36-5.6-6.6,2.1-13.3,1.1-19.3-2.1-5.7-3.1-6.3-8.8-6.1-14.6.1-.9.4-1.9.5-2.9h0Z"/>
      <path d="M228.7,183.9c-.6,3.4-1,6.8-1.8,10.1-2.7,10.6-13.9,12.3-20.7,10-5.1-1.8-6.7-6.4-7.3-11.2-1.6-12.5,8-26.5,20.2-30.3,6.2-1.9,11,1.4,11.3,7.8.1,2.3-.1,4.5-.4,6.8-.3,2.3-.8,4.5-1.3,6.8h0Z"/>
      <path d="M237.2,188.2c.1-.5.1-1,.3-1.5.3-1.2.8-3.1,1.1-4.1.5-1.7.7-1.8,1.2-3.6.6-1.8,1.1-2.7,1.8-4.5,1.6-4.2,4.8-7.1,9.4-7.3,4.3-.3,6.9,2.8,9,6.1,5.9,9,6.7,18.7,3.3,28.8-2.2,6.6-8.5,10.3-15.2,9.3-6.4-1-11.3-6.5-11.5-13.2v-3.2c.1-1,.1-2.8.3-4.3.1-1,.2-1.6.3-2.5Z"/>
      <path d="M166.3,205c.3-2.2.8-4.2,1.6-6.2,1.3-3.4,3.1-6.9,5.4-10.3,2.5-3.6,6.6-5.4,11.1-3.9,4.4,1.4,5.3,5.3,5.8,9.4.6,4.9,1.3,9.8,2,14.7,1.3,8-1.1,14.3-6.5,16.8-9.1,4.2-18.2-.8-19.7-11.1-.3-2.8-.1-5.8.3-9.4h0Z"/>
      <path d="M284.9,221.9c0,.6-.2,2.3-.3,2.9-1.1,8.8-6.1,15.4-15.3,17.8-7.7,2.1-15.4-4.3-14.8-12.3.1-.8.1-1.5.4-2.2,3.7-9.5,9.9-17.1,18.2-22.6,4.9-3.2,10.5-.2,11.3,5.7.3,2.2.6,4.4.7,6.6"/>
    </g>
  </g>
  <g id="Layer_4">
    <g>
      <path d="M174.8,150.9c-2.2,1.6-5,2.4-7.8,2.3-1.7-.1-3.3-.1-5-.1s-3,.1-3.8.9c-10,11.4-23.3,15-37.7,15.6-2.7.1-4.7.4-6.6,3-4.3,6-10.9,7-17.9,5.6-6.4-1.4-11.1-4.9-12.5-11.8-1.5-7.4,4.3-18,11.2-20.7,3.5-1.4,7.6-2.1,8.3-6.8.2-1.6,0-3.3-.2-4.8-2.8-12.7,2.6-23.6,14.4-28.7,4.7-2,9.6-1.9,14.1.5,6.3,3.3,11.7,7.9,14.3,14.8,1.1,2.8,2.7,3.4,5.3,2.6,2.9-.9,5.8-1.9,8.7-2.7,8.7-2.6,18.9,1.7,23,9.8,2.6,5.1,1.4,11.7-3.4,16.8-1.1,1.3-2.6,2.5-4.4,3.7h0Z"/>
      <path d="M137.7,68.6c2.9,8,2.4,16-.4,23.9-1.2,3.4-3.5,5.8-7.5,6-3.9.2-7.4-.4-9.4-4.3-3.8-7.7-6.8-15.7-5.7-24.5.9-6.9,3.6-9.7,10.4-10.5,5.5-.7,9.7,2.1,12,8,.3.4.4.9.6,1.4h0Z"/>
      <path d="M109.2,94.2c.9,3.6.7,5.1.3,6.3-.7,2.4-2.4,3.9-3,4.4-3.3,2.9-7.4,3.3-11.5,1.7-7.3-2.8-15.4-15.9-14.9-23.7.3-5.3,3.4-9.7,7.5-11,1.7-.5,3.4-.6,5-.4,3.9.6,6.3,3.3,7.7,4.9,1.1,1.2,1.8,2.5,3.2,4.8,4.2,7.4,5.4,11.7,5.7,13Z"/>
      <path d="M95.3,126.4c.3.7.6,1.3.7,2,.9,3.6.5,7-2.5,9.9-3.2,3.1-9.8,4.2-13.9,2.1-7-3.6-11.9-9.1-13.9-16.8-2.4-9.3,3.2-14.8,12.4-12.3,8.2,2.2,13.6,7.6,17.2,15.1h0Z"/>
      <path d="M169,89.2c1.6,7,.8,12.8.1,16-.4,1.8-.6,2.8-1.1,3.8-1.6,3-4.7,5-8.3,6-5,1.5-9.4-.7-11.5-5.6-3.5-8.1-2.8-15.9,2-23.2,1.5-2.2,3.3-4,5.7-4.7,1.8-.6,3.3-.4,4.3-.3.8,0,3.4.4,5.6,1.9.6.4,1.3.9,1.8,1.7.3.7.8,1.5,1.4,4.4Z"/>
    </g>
  </g>
  <g id="Layer_12">
    <g>
      <path class="st2" d="M168.8,250.6c2.7-11.1,8.9-19.1,20.5-21.5,8.2-1.7,14.2-5.3,17.7-13.3,3.2-7.3,13.4-11.5,21-9.7,8,2,13.3,8.8,12.9,17.9-.4,8.2,2.7,14.4,8.6,19.8,3,2.7,5.8,5.7,8.2,9,4.9,6.7,4.8,14,1.3,21.2-3.4,7-7.6,9.2-15.2,7.4-4.9-1.2-9.9-2.9-14.1-5.6-11.3-7.1-23-9.8-36-5.6-6.6,2.1-13.3,1.1-19.3-2.1-5.7-3.1-6.3-8.8-6.1-14.6,0-.9.3-1.9.5-2.9h0Z"/>
      <path class="st2" d="M227.5,182.1c-.6,3.4-1,6.8-1.8,10.1-2.7,10.6-13.9,12.3-20.7,10-5.1-1.8-6.7-6.4-7.3-11.2-1.6-12.5,8-26.5,20.2-30.3,6.2-1.9,11,1.4,11.3,7.8.1,2.3-.1,4.5-.4,6.8-.4,2.3-.9,4.6-1.3,6.8h0Z"/>
      <path class="st2" d="M235.9,186.4c.1-.5.1-1,.3-1.5.3-1.2.8-3.1,1.1-4.1.5-1.7.7-1.8,1.2-3.6.6-1.8,1.1-2.7,1.8-4.5,1.6-4.2,4.8-7.1,9.4-7.3,4.3-.3,6.9,2.8,9,6.1,5.9,9,6.7,18.7,3.3,28.8-2.2,6.6-8.5,10.3-15.2,9.3-6.4-1-11.3-6.5-11.5-13.2v-3.2c.1-1,.1-2.8.3-4.3,0-.9.2-1.6.3-2.5h0Z"/>
      <path class="st2" d="M165,203.2c.3-2.2.8-4.2,1.6-6.2,1.3-3.4,3.1-6.9,5.4-10.3,2.5-3.6,6.6-5.4,11.1-3.9,4.4,1.4,5.3,5.3,5.8,9.4.6,4.9,1.3,9.8,2,14.7,1.3,8-1.1,14.3-6.5,16.8-9.1,4.2-18.2-.8-19.7-11.1-.3-2.8-.1-5.8.3-9.4h0Z"/>
      <path class="st2" d="M283.7,220.2c0,.6-.2,2.3-.3,2.9-1.1,8.8-6.1,15.4-15.3,17.8-7.7,2.1-15.4-4.3-14.8-12.3.1-.8.1-1.5.4-2.2,3.7-9.5,9.9-17.1,18.2-22.6,4.9-3.2,10.5-.2,11.3,5.7.3,2.2.6,4.4.7,6.6"/>
    </g>
  </g>
  <g id="Layer_41">
    <g>
      <path class="st0" d="M172.9,150c-2.2,1.6-5,2.4-7.8,2.3-1.7-.1-3.3-.1-5-.1s-3,.1-3.8.9c-10,11.4-23.3,15-37.7,15.6-2.7.1-4.7.4-6.6,3-4.3,6-10.9,7-17.9,5.6-6.4-1.4-11.1-4.9-12.5-11.8-1.5-7.4,4.3-18,11.2-20.7,3.5-1.4,7.6-2.1,8.3-6.8.2-1.6,0-3.3-.2-4.8-2.8-12.7,2.6-23.6,14.4-28.7,4.7-2,9.6-1.9,14.1.5,6.3,3.3,11.7,7.9,14.3,14.8,1.1,2.8,2.7,3.4,5.3,2.6,2.9-.9,5.8-1.9,8.7-2.7,8.7-2.6,18.9,1.7,23,9.8,2.6,5.1,1.4,11.7-3.4,16.8-1.1,1.3-2.7,2.5-4.4,3.7h0Z"/>
      <path class="st0" d="M135.7,67.7c2.9,8,2.4,16-.4,23.9-1.2,3.4-3.5,5.8-7.5,6-3.9.2-7.4-.4-9.4-4.3-3.8-7.7-6.8-15.7-5.7-24.5.9-6.9,3.6-9.7,10.4-10.5,5.5-.7,9.7,2.1,12,8,.3.4.4.9.6,1.4h0Z"/>
      <path class="st0" d="M107.2,93.3c.9,3.6.7,5.1.3,6.3-.7,2.4-2.4,3.9-3,4.4-3.3,2.9-7.4,3.3-11.5,1.7-7.3-2.8-15.4-15.9-14.9-23.7.3-5.3,3.4-9.7,7.5-11,1.7-.5,3.4-.6,5-.4,3.9.6,6.3,3.3,7.7,4.9,1.1,1.2,1.8,2.5,3.2,4.8,4.3,7.4,5.4,11.7,5.7,13Z"/>
      <path class="st0" d="M93.3,125.5c.3.7.6,1.3.7,2,.9,3.6.5,7-2.5,9.9-3.2,3.1-9.8,4.2-13.9,2.1-7-3.6-11.9-9.1-13.9-16.8-2.4-9.3,3.2-14.8,12.4-12.3,8.2,2.2,13.6,7.5,17.2,15.1Z"/>
      <path class="st0" d="M167.1,88.3c1.6,7,.8,12.8.1,16-.4,1.8-.6,2.8-1.1,3.8-1.6,3-4.7,5-8.3,6-5,1.5-9.4-.7-11.5-5.6-3.5-8.1-2.8-15.9,2-23.2,1.5-2.2,3.3-4,5.7-4.7,1.8-.6,3.3-.4,4.3-.3.8,0,3.4.4,5.6,1.9.6.4,1.3.9,1.8,1.7.3.7.7,1.5,1.4,4.4Z"/>
    </g>
  </g>
  <text class="st1" transform="translate(121 327)"><tspan x="0" y="0">Shelter Partner</tspan></text>
</svg>